<svg version="1.2" xmlns="http://www.w3.org/2000/svg" viewBox="0 0 171 242" width="171" height="242">
	<title>character-01</title>
	<style>
		.s0 { fill: #ffffff } 
		.s1 { fill: #000000 } 
	</style>
	<g id="Introduction">
		<g id="variations">
			<g id="images">
				<g id="a-person/bust">
					<g id="body/Button-Shirt-1">
						<path id="ðŸŽ¨-Background" fill-rule="evenodd" class="s0" d="m13.5 237.1c27.6 4.1 55.7 4.4 83.5 2.8 11-0.8 22.1-0.9 33.1 0.1 6.5 0.5 35 2.7 37.3-3.1-1.5-31.1-4.4-62.4-13.5-92.2-3.8-10.6-7-19.4-14.3-28.2-2.3-2.4-7.3-7.4-10.1-9-2.5-1.4-3.5-0.9-4.9-3.3-1.5-2.7-2.5-7.1-4.5-9-2-1.9-5-1.2-8.8-0.6 0.7-9.3-3.6-11.6-9.5-13.4-10.4-3.9-20.6-2-23.2 10.7-4.9 0-7.6 2.1-10.5 4.1-1.2 0.8-0.4 2.9-1.8 3.5-2.7 1-7.4 0.7-9.9 1.9-11.7 5.3-22 13-28.8 24.2-15.3 23.9-25.7 74.3-23.9 102.7-0.8 1.3 0.3 3 0.6 4.4 0.3 1.2 1.5 1.9 2.6 1.8 1.7 1.8 4.3 2.2 6.6 2.6z"/>
						<path id="ðŸ–-Ink" fill-rule="evenodd" class="s1" d="m127.7 106.8c-0.2-0.1 0-0.4 0.2-0.3 8.1 3.9 14.4 10.6 18.8 18.4 4.6 8.1 7.2 17.2 9.5 26.2l0.1 0.3c2.4 9.6 4.4 19.2 6.2 28.9 1.9 9.8 3.4 19.7 4.6 29.6q0.9 7.4 1.5 14.8 0.3 3.7 0.6 7.4 0.1 1.4 0.2 2.9v0.8c0 0.6 0.1 1.3-0.1 2-0.1 0.5-0.4 1-0.7 1.6-0.5 1-1.9 0.8-2.5 0l-0.2-0.3c-0.3-0.6-0.6-1.1-0.8-1.8-0.1-0.7-0.1-1.5-0.1-2.2q-0.2-1.9-0.3-3.9-0.3-4.1-0.6-8.2c-0.5-5.4-1-10.8-1.6-16.1q-1.7-14.4-4.2-28.6c-1.6-9.3-3.6-18.5-5.7-27.6l-0.2-1c-3.7-16-9.4-34.4-24.7-42.9zm-87.2 62.6c0.1-0.2 0.3-0.2 0.4 0 0.5 2.5 0.6 5 0.7 7.6q0.1 3.8 0 7.5c-0.1 9.3-0.4 18.5-0.6 27.7q-0.2 6.9-0.3 13.8 0 2.6-0.1 5.2v2.3c0 1 0 2-0.1 3-0.1 0.7-0.3 1.3-0.7 1.9-0.2 0.4-0.6 0.6-1 0.9q-0.7 0.6-1.4 0l-0.2-0.1c-0.4-0.3-0.8-0.6-1-1.1-0.4-0.8-0.5-1.6-0.6-2.4-0.1-1.3 0-2.5 0-3.8q0.1-3.8 0.1-7.5c0.2-9.3 0.5-18.5 1.1-27.7q0.4-6.5 1.1-13l0.1-0.8q0.3-2 0.5-3.9c-2.3-1.6-4.4-3.6-6.1-5.9-0.2-0.2 0-0.4 0.2-0.2 1.8 1.8 3.8 3.3 6.1 4.4 0.4-2.7 0.9-5.4 1.8-7.9zm38.9-82.3q0.1 0 0.1 0c0.5 0.6 0.4 1.5 0.4 2.2v0.1q0.1 1.6 0.1 3.3v3.4c0 0.5-0.1 1-0.1 1.4l0.1 0.2c0.2 0.3 0.3 0.7 0.3 1.1-0.1 0.5-0.3 0.9-0.7 1.2l0.8 1.1 0.8 1.2q2.6 3.6 5.2 7.1 2.7 3.6 5.8 6.9 1.5 1.6 3 3.1 0.7 0.7 1.3 1.3l0.4 0.4c0.3 0.2 0.6 0.5 0.7 0.8 0.1 0.2 0.2 0.6 0.2 0.7 0.3 0.7-0.2 1.8-1.1 1.5v-0.1q0.3-0.1-0.3 0-0.3 0-0.6-0.1l-0.1-0.1c-0.3-0.1-0.5-0.4-0.8-0.6v-0.1q-0.8-0.7-1.6-1.5-1.6-1.6-3.1-3.4-3-3.4-5.7-7.1c-1.9-2.4-3.6-5.1-5-7.8q-0.9-1.5-1.6-3.1c-0.9-0.3-1.2-1.4-1.1-2.5-0.4-0.8-0.7-1.7-0.9-2.5 0-0.1 0.2-0.2 0.3-0.1q0.4 0.5 0.8 1.1c0.2-0.8 0.4-1.6 0.5-2.1l0.4-2c-2.4-0.2-5 0.8-6.6 2.5-0.1 0.5-0.5 0.8-0.8 1.2q-0.6 0.7-1 1.6c-0.5 1.2-0.2 3.1-1.3 4q-0.2 0.1-0.3 0.2c0.5 2.5 0.2 5.2 0.2 7.8v0.2c0 2.8-0.1 5.6-0.2 8.5l-0.1 2.8c-0.1 3.7-0.2 7.5 0.1 11.2q2.5-2.2 5.2-4.2 1.7-1.3 3.5-2.6l1-0.6c1.2-0.8 2.4-1.6 3.7-2.2 1.7-0.7 3.3-0.5 4.9 0.3 1.6 0.7 3.2 1.6 4.8 2.4q2.4 1.3 4.9 2.5c1.1 0.6 2.6 1.1 3.4 2.1q0.1-0.4 0.2-0.7c-0.1-0.3-0.1-0.7 0.1-1 2.7-4.9 5.1-9.9 7.6-14.9 1.2-2.5 2.4-5 3.6-7.6l1.2-2.4q0.3-0.6 0.6-1.2 0.5-0.9 0.9-1.9c0.2-0.2 0.3-0.5 0.4-0.7l0.1-0.2c0 0 0.3-0.9 0.1-0.8h-0.1c-0.1 0.1-0.2-0.1-0.1-0.2 0.3-0.3 0.8 0 1 0.4 0.5 1-0.5 2.5-0.8 3.5-1.1 3.1-2.4 6.2-3.6 9.2-2.4 5.8-5.1 11.5-7.7 17.2v0.1c0.6-0.4 1.2-0.8 1.7-1.2q1.9-1.4 3.9-2.7 3.6-2.5 7.4-4.7l0.5-0.3c1.2-0.7 2.5-1.3 4-1.1 1.4 0.2 2.7 0.9 3.9 1.5l0.1 0.1 3.9 1.9q-0.6-2.5-1.3-5-1.4-4.8-3-9.5-1.5-4.4-3.3-8.7l-0.3-0.8c-0.5-1.2-1-2.5-2.3-2.9-1.4-0.4-3 0.2-4.2-0.6-0.1-0.1-0.1-0.2 0.1-0.3l0.7-0.2c1.4-0.3 3.1-0.7 4.5-0.3 1.5 0.3 2.7 1.6 3.4 2.9 0.8 1.4 1.3 3 2 4.5v0.3q1.1 2.6 2 5.2 2 5.2 3.5 10.6 0.8 2.6 1.5 5.2c0.1 0.5 0.3 1.1 0.5 1.7q0.3 0.3 0.6 0.7c0.3 0.4 0.1 0.9-0.3 1.2q0 0.6-0.3 1.1c-0.9 1.4-3.3 1.1-3.2-0.8q0-0.4 0.3-0.7v-0.1l-0.1-0.1q-0.6-0.3-1.2-0.6l-4.1-2c-1.2-0.6-2.5-1.5-3.8-1.7-1.2-0.2-2.5 0.7-3.5 1.3h-0.1q-3.8 1.9-7.5 4-1.9 1-3.7 2c-1 0.6-2.1 1.4-3.3 1.7-0.4 0.4-1 0.3-1.5 0 0.2 1.3 0.2 2.7 0.3 4.1 0.1 1.8 0.1 3.6 0.1 5.4v0.7q0.1 6 0.1 12c0.1 14.2-0.1 28.5-0.1 42.7 0 7.2-0.2 14.3-0.3 21.5-0.1 3-0.3 6-0.5 9.1l-0.1 1.6c-0.2 3.5-0.3 7-0.9 10.5-0.1 0.4-0.9 0.4-1 0-0.5-3.7-0.6-7.5-0.7-11.2v-0.8q-0.2-6-0.2-12c0-14.2 0.4-28.5 0.7-42.7 0.2-7.2 0.3-14.3 0.5-21.5q0.2-5.3 0.4-10.7 0.1-2.4 0.3-4.8v-0.7q0.1-0.7 0.1-1.3c-1.4 0.5-2.8-0.5-4.1-1.1q-2.2-1.2-4.4-2.3l-1.5-0.8-3-1.5c-1.4-0.7-2.4-1.4-3.9-0.6-5.1 2.9-9.9 6.8-14.2 10.8-0.8 0.8-2.6 0.6-2.8-0.7-0.9-5.6-0.3-11.2 0.1-16.8l0.2-2.1q0.3-3.7 0.7-7.4 0.2-1.7 0.4-3.3l0.1-0.9c0.2-1.3 0.3-2.6 0.7-3.8q-0.2-0.1-0.3-0.2c-1.2-1.1-0.6-3.1-0.1-4.4 0.5-1.3 1.3-2.4 2.3-3.4 0.3-0.2 0.6-0.4 0.9-0.4 2.4-1.6 5.1-2.4 7.9-1.5q0.1-0.6 0.2-1.1l0.1-0.4c0.2-0.9 0.3-2.4 1.1-3.1zm25 146.1c0.8-0.2 1.6 0 2.2 0.6 0.5 0.5 0.7 1.4 0.5 2.1q-0.1 0.6-0.5 1-0.4 0.4-0.9 0.5l-0.1 0.1h-0.1q-0.6 0.2-1.2 0-0.5-0.1-0.9-0.5-0.4-0.4-0.6-1-0.1-0.5 0-1.1l0.1-0.1q0.1-0.6 0.6-1 0.4-0.4 0.9-0.6zm45-75.5c0.1-0.1 0.3 0.1 0.2 0.2-1.1 2.3-2.5 4.6-3.7 6.9q0.1 0.9 0.3 1.8c0.5 2.6 1.1 5.1 1.5 7.7 1.4 9.4 2.2 18.8 2.8 28.3 0.7 9.4 0.8 18.9 0.9 28.4 0 0.8-0.7 1.7-1.5 1.9-0.4 0.1-0.7 0.1-1.1 0-0.8-0.1-1.4-1.1-1.4-1.9q-0.4-8-1-15.9c-0.7-9.4-1.1-18.8-1.7-28.2l-0.2-3.3c-0.2-3.5-0.4-7.1-0.5-10.7 0-2.3 0.1-4.7 0-7 0-2.2-0.3-4.6 0.2-6.7 0-0.1 0.2-0.1 0.2 0 0.5 1 0.8 2.2 1 3.3 1.3-1.6 2.6-3.2 4-4.8zm-84.2-57.5c0.2 0 0.2 0.3 0 0.3-2.5 0.3-4.9 1.3-7.3 2.2l-0.2 0.1q-3.6 1.3-7 3.1c-4.4 2.4-8.5 5.4-12.1 8.9-14.3 13.9-20.8 34-25.6 52.9-2.6 10.5-4.5 21.2-5.7 32q-0.9 8-1.3 16-0.2 4.1-0.3 8.2 0 2.1 0 4.2c0 0.7 0.1 1.5 0 2.1-0.2 0.6-0.6 1.1-1 1.6-0.4 0.6-1.1 0.5-1.5 0l-0.1-0.2c-0.5-0.6-0.9-1.1-0.9-1.9-0.1-0.8-0.1-1.6-0.1-2.4q0-2.4 0.1-4.8 0.1-4.6 0.3-9.2 0.6-9.4 1.9-18.7c1.5-11 3.8-21.9 6.8-32.6 2.9-10.1 6.2-20.1 11-29.4 4.5-8.7 10.3-16.8 18-22.9 3.6-2.8 7.5-5.1 11.7-6.9 2.1-0.9 4.3-1.6 6.6-2 2.2-0.4 4.5-0.4 6.7-0.6zm39.7 115.2c0.4 0 0.8 0.1 1.1 0.3l0.5 0.4q0.2 0.2 0.4 0.4c0.3 0.4 0.3 1 0.2 1.5q0 0.4-0.2 0.8l-0.4 0.4c-0.3 0.3-0.6 0.5-1 0.6q-0.3 0.1-0.6 0.1h-0.1 0.1-0.1q-0.1 0-0.2 0-0.1 0-0.2 0 0 0-0.1 0c-0.5 0-1-0.3-1.4-0.6-0.3-0.3-0.6-1-0.6-1.4l0.1-0.2c0-0.3 0-0.5 0.2-0.8q0.1-0.4 0.5-0.8 0.8-0.7 1.8-0.7zm-1.6-23.5c0.6-0.8 1.8-0.8 2.7-0.4 0.2 0.1 0.4 0.3 0.5 0.5 0.5 0.3 0.7 1 0.7 1.6 0 0.5-0.3 1.2-0.7 1.6v0.1c-0.3 0.2-0.6 0.4-1 0.5-0.5 0.1-0.9 0.1-1.4-0.2q-0.7-0.2-1.1-0.8v-0.1q0 0-0.1-0.1c-0.5-0.9-0.3-2 0.4-2.7zm0.3-23.7q0.5-0.1 0.9 0 0.4 0 0.6 0.1 0.3 0.1 0.5 0.3 0.3 0.2 0.5 0.5 0.3 0.3 0.4 0.8l0.1 0.6-0.1 0.6-0.3 0.5q-0.1 0.2-0.2 0.3-0.1 0.3-0.4 0.4-0.1 0.2-0.4 0.3c-0.5 0.3-1.2 0.5-1.8 0.3q-0.5-0.2-0.9-0.6-0.4-0.4-0.6-0.9v-0.3c-0.1-0.4-0.1-0.6 0-1.1 0.1-0.2 0.2-0.5 0.3-0.7 0.3-0.5 0.8-0.9 1.4-1.1zm26.9-17q1.3 0 2.6 0h0.7c1.1 0.1 2-0.1 2.9 0.7 0.7 0.6 0.4 1.5-0.2 1.9-0.9 0.7-2.1 0.4-3.1 0.3q-1.7-0.1-3.4-0.2-3.2-0.1-6.4-0.2-3.2 0-6.5 0.1c-2.1 0-4.4 0.2-6.6 0-0.3 0-0.4-0.4-0.1-0.5 2.1-0.7 4.4-1 6.5-1.2q3.3-0.5 6.7-0.6 3.4-0.2 6.9-0.3zm-26.9-6.9h0.1q0.6 0 1.1 0.2l0.1 0.1 0.4 0.3q0.5 0.5 0.6 1.1l0.1 0.6q0 0.5-0.2 0.9-0.1 0.4-0.5 0.7-0.3 0.4-0.7 0.5-0.4 0.2-0.8 0.2h-0.1q-0.6 0-1.2-0.3l-0.5-0.4q-0.4-0.4-0.6-1v-0.6q-0.1-0.5 0.2-0.9 0.1-0.4 0.4-0.8 0.4-0.3 0.8-0.4 0.4-0.2 0.8-0.2zm6.9-54.5c0.5-0.7 1.4-0.1 1.3 0.5 0 1.6 0.1 3.2 0.4 4.8 0.2 0.8 0.4 1.5 0.8 2.2l0.1 0.2c0.5 0.9 0.8 1.8 0.2 2.7-0.3 0.5-0.8 0.8-1.3 0.8-2.5-0.1-2.8-3.5-3-5.4-0.1-2 0.4-4.2 1.5-5.8z"/>
					</g>
					<g id="head/No-Hair-3">
						<path id="ðŸŽ¨-Background" fill-rule="evenodd" class="s0" d="m128.9 29.6c-7.5-19.5-20.9-33.8-43.5-24.8-0.6-0.5-1.5-0.6-2.3-0.1-12.3 7.7-21.1 20.1-25 34.1-2.3 0.4-4.6 1.2-6.6 2.5-4.4 2.8-7.4 7.2-10.2 11.4-0.8 1.3 0 3.5 1.6 3.7q1 0.2 2 0.3-0.3 0.9-0.7 1.7c-1 1.9 0.9 3.9 2.7 3.4q0.3 0.1 0.6 0.2c0 1.1 0.6 2.6 1.7 2.8 1.7 0.4 4.1-1 3.7-3q0.8 0.1 1.6 0c0 1.1 0 2.2 0.2 3.1 0.4 4.5 4.9 7.5 9.2 6.2 0.3 1.4 0.6 3.3 2 4.1 1.6 4.5 4.4 9.7 8.9 11.8-0.4 1-0.2 2.3 1.1 3 8.3 4.7 18.3 6.3 27.8 4.6 3.8-0.3 7.4-1.1 11-2.9 2.5-1.4 4.9-3 7.2-4.8 2.3-1.7 4.8-3.4 6.6-5.7 2-2.4 3-5.3 3.6-8.3 2.8-14 1.8-27.6-3.2-40.9-6.3-16.4 6.2 14 0-2.4z"/>
						<path id="ðŸ–-Ink" fill-rule="evenodd" class="s1" d="m92.9 0.9c3.8-0.2 7.7 0.4 11.3 1.6 5.8 1.8 11.1 5 15.5 9.2 4.5 4.4 7.8 9.7 9.8 15.6 2.4 7.1 2.8 14.7 3.5 22.1 0.3 3.8 0.9 7.5 1.5 11.2l0.1 0.6c0.6 3.6 0.9 7.3 0.1 10.9-1.3 6-5.3 11.1-10.1 14.8-9.7 7.8-24.8 12.5-36.2 5.4-1.7-1.1-0.1-3.9 1.6-2.8 1.2 0.8 2.5 1.5 3.9 2 5.7 2.1 12 1.3 17.6-0.6 5.6-1.8 10.9-5 15.1-9.2 4.3-4.5 6.7-10 6.3-16.2-0.2-3.7-1-7.3-1.5-11-0.4-3.3-0.7-6.6-1-9.8l-0.1-1.2c-0.6-6.7-1.4-13.5-4.5-19.6-2.5-5.1-6.3-9.6-10.8-13.1-4.7-3.7-10.3-6.2-16.2-7.2-6.9-1.1-13.5 0.9-19.3 4.7-5.1 3.4-9.5 7.9-12.9 13-1.7 2.5-3.1 5.2-4.3 7.9-1.1 2.5-1.9 5.2-2.8 7.9q1.1-0.1 2.3 0.1c4 0.4 7.7 2.5 10 5.7 2.9 4 2.2 8.9 3.3 13.4 0.1 0.3-0.1 0.7-0.4 0.9-1.7 1.1-4 1.1-5.6-0.1-1.5-1.1-2.1-3.1-1.6-4.8 0.1-0.2 0.4-0.1 0.4 0.1 0.2 2.9 2.8 5.1 5.5 3.8-1.1-3.9-0.5-8.3-2.9-11.8-4.1-6.3-12.5-6.5-18.5-3-3.1 1.8-5.6 4.6-7.5 7.7l-0.5 0.9c-0.7 1.2-1.5 2.6-1.6 3.9-0.1 0.8 0.2 1.5 1.1 1.1 0.7-0.3 1.2-1 1.7-1.6 0.7-1.1 2.3-0.2 1.7 1-0.8 1.5-1.4 3.2-1.5 5v0.5c0 0.3 0 0.8 0 0.9 0.1 0 0.8-0.7 0.9-0.8 0.5-0.5 1-0.9 1.7-1 0.9-0.2 1.8 0.9 1 1.7-0.7 0.6-0.7 1.9 0.1 2.4 1.1 0.9 2.5-0.5 2.7-1.6 0.1-1.2 1.8-1.3 1.8 0 0.2 2.6-2.9 4.9-5.4 3.5-0.9-0.5-1.5-1.5-1.7-2.5q-0.5 0.2-1 0.3c-1.1 0.1-1.9-0.7-2.1-1.8-0.2-1.2-0.1-2.6 0.2-3.8-0.6 0.1-1.2 0-1.9-0.3-2-1.2-1.4-3.7-0.6-5.4 3.1-7.3 9.7-13.9 17.8-14.4 0.1-1.3 0.3-2.5 0.5-3.8 2.8-12.6 11.9-24.2 23.6-29.7 3.1-1.4 6.5-2.4 9.9-2.7zm-30.8 50.3h0.1c1.3-0.3 4.6-0.6 4.2 1.5 0 0.1-0.1 0.1-0.2 0-0.3-1.3-3-0.2-3.8 0.1-1.1 0.4-2.1 1.1-3 1.8-2 1.7-3.2 4.1-3.4 6.6-0.2 2.6 0.5 5.3 2.3 7.2 0.9 0.9 2.1 1.5 3.4 1.5 1.1 0.1 2.4-0.8 3.5-0.3 0.2 0.1 0.3 0.4 0.3 0.6 0 0.4-0.2 0.8-0.5 1.1 1.8 3.2 3.2 6.7 5.5 9.6 1.2 1.5 2.5 2.9 3.9 4.1q1.1 0.8 2.3 1.4c0.9 0.5 1.7 0.9 2.3 1.7 0.6 0.7 0 2.2-0.9 2.3-2.2 0.3-4.3-1.5-5.8-2.8-1.6-1.3-3-2.9-4.1-4.6-2.2-3.3-3.7-7.2-4.3-11.1-0.7 0.2-1.5 0.2-2.1 0.2-1.5 0-3-0.5-4.2-1.5-4.5-3.4-5-10.6-1.9-15.1 1.6-2.1 3.9-3.7 6.4-4.3zm0 8.3c1.1-0.1 2.1 0 3.1 0.4l0.4 0.1c0.9 0.4 1.8 0.7 2.4 1.4 0.9 0.9 0 2.6-1.4 2.3-1.4-0.5-2.6-1.7-4.1-2.2-1.3-0.5-2.8-0.4-4 0.4-0.2 0.1-0.4-0.1-0.3-0.3 0.9-1.4 2.4-2 3.9-2.1z"/>
					</g>
					<g id="face/Smiling">
						<path id="ðŸ–-Ink" fill-rule="evenodd" class="s1" d="m109.2 79.3c-1.5-0.6-2.7-1.6-3.7-2.8-0.3-0.4-0.4-0.9-0.3-1.3 0.1-0.5 0.4-0.9 0.7-1.2 0.4-0.3 0.9-0.4 1.3-0.3 0.4 0 0.8 0.2 1.1 0.7l0.1 0.1c0.6 0.7 1.3 1.3 2.1 1.7 0.8 0.4 1.7 0.6 2.6 0.5 1.7-0.2 2.9-1.1 4.2-2.4q0.2-0.3 0.5-0.5 0.1-0.2 0.3-0.3 0.3-0.1 0.6 0 0.3 0.1 0.4 0.3 0.2 0.2 0.2 0.5c-0.2 1.4-0.9 2.5-1.8 3.5-1.1 1-2.6 1.7-3.9 2-1.5 0.2-3.1 0-4.4-0.5zm5.9-21.6c8.1 1.4 3.9 15.4-6.5 7.7-1.2-1 0.3-3.2 1.6-2.3 1.5 1.1 4.4 3.5 6.4 1.4 1.7-2.4-0.7-4.7-2.3-5.6-0.4-0.3-0.1-1.3 0.8-1.2zm-19.4-7.8c0.2-2.1 3.5-2.6 3.9-0.5 0.2 2-0.1 3.7-1 5.5-0.8 1.7-2.9 0.9-3.1-0.6-0.2-2.1 0.1-3 0.2-4.4zm25.4-0.9c0.4-0.6 1.1-1.1 1.9-0.8 2.5 0.7 1.8 4.3 0.9 6-0.5 1-2 1.2-2.7 0.4-1.2-1.4-1.7-4.1-0.3-5.4q0.1-0.1 0.2-0.2zm-22.5-8.6l0.4-0.1c1.2-0.2 2.7-0.4 3.6 0.6 0.5 0.5 0.6 1.5 0 2-1.1 0.8-2.3 0.5-3.6 0.6q-1.6 0.1-3.1 0.5c-2.3 0.7-4.2 1.8-6.1 3.2-0.3 0.1-0.5-0.2-0.4-0.4 1.1-2.2 3.3-4 5.5-5.1 1.1-0.6 2.4-1.1 3.7-1.3zm20.2-1h0.3c3.3 0.7 7.6 2.1 9.2 5.4 0 0.4-0.1 0.5-0.1 0.6-0.1 0.1-0.1 0.1-0.3 0.2q-0.1 0-0.2 0c-0.7-0.2-1.2-0.5-1.8-0.8l-0.6-0.3c-0.7-0.3-1.4-0.6-2.1-0.9q-2.4-0.7-4.9-1-0.5-0.1-0.9-0.4-0.4-0.3-0.6-0.8c-0.1-0.5-0.1-0.8 0.2-1.3q0.3-0.4 0.8-0.6 0.4-0.2 1-0.1z"/>
					</g>
					<g id="facial-hair/Moustache-9">
						<path id="ðŸŽ¨-Background" fill-rule="evenodd" class="s0" d="m122.4 67.4c-2.9-0.5-6 0.3-8.9 1-4.5-2.9-10.4 0.1-13.7 3.8-1.1 0.9-3.4 2.1-2.2 3.9-0.4 1.2-0.6 1.8 0.4 0.4 5.5 0.6 11.3-0.6 16.7-1.7 1.9 0.6 3.5 2 5.5 1.5 1.9 0.4 4 0.8 5.7-0.4 1.4-0.1 4.3 2.3 4.2-0.4-0.4-2.7-5.6-7.1-7.7-8.1z"/>
						<path id="ðŸ–-Ink" fill-rule="evenodd" class="s1" d="m131.1 78c-3.8-2.7-9.3 2.1-16.1-2.4-3.5 2.9-13.1-0.1-18.7 3.1-4.5 1 5-10.9 6.7-11 4-2.4 7.3-1.6 11.3-0.1 1.3 0.1 2.8-0.8 4.1-1 6.7-1 11.5 5.1 13.9 10.5 0.4 0.8-0.5 1.6-1.2 0.9zm-1.2-2.3c-2.2-4.5-6.7-9.1-12.2-7.8-0.3 0.1-3.9 1.4-3.2 0.8-7.9-2.8-13.1 0.3-16.8 7.6 3.9-1.3 8.1-1 12.1-1.1 1.2 0 3.5 0.3 4.2-1 0.1-0.4 0.4-0.5 0.7-0.4 0.2-0.2 0.5-0.2 0.8 0 2.7 1.9 5.9 2.4 9.1 2.1 1.8-0.2 3.6-0.6 5.3-0.2z"/>
					</g>
					<g id="accessories/Glasses-3">
						<path id="ðŸ–-Ink" fill-rule="evenodd" class="s1" d="m139.2 45.7c-0.9 0.4-1.5 1.3-1.2 2.3 0.1 0.8-0.2 1.4-0.7 1.7-0.1 4.7-0.9 10.1-4.6 13.6-8.6 5.6-17.1-1.3-15.3-12.2q-0.2-0.1-0.3-0.3-0.1-0.2-0.2-0.3c-0.1-0.2-1.5-0.7-3.3-0.4-1.8 0.2-2.4 1.1-3.3 2-0.1 0.3-0.4 0.5-0.7 0.6-0.8 4-1.5 8.4-4.6 11.4-7.7 7.2-21 1.3-20.5-9.7-2.7-0.5-0.4-3.6-4.7-4.3-0.7-0.3-1.4-0.7-1.9-1.3-6.4-0.7-12.6-0.4-18.7 1.8-2.5 1-5.7 1.5-4.3 5.1 0 1-1.2 1.6-2 0.8q0 0 0 0c-4.2-7.5 4.1-8.7 10.1-9.6 3.3-0.7 6.6-1 9.9-1 1.5 0.1 3.5 0 4.9 0.4q0 0 0 0c1.4-4.2 30.7-5.2 32.4 1.8 2.2 0 3.9 0.6 5.8-0.1 0.6-5.1 14.5-7.1 20.5-5.7q0.7 0.1 1.3 0.2 0.3 0.1 0.5 0.2 0.2 0 0.5 0.1c1.3 0.2 1.5 2.3 0.4 2.9zm-31.3 5.9c-2.4-2.1-3.7-4.1-8.4-4.4-3.7 0-7.7-0.1-11 2-2 1-1.6 3.9-3.2 5 1.7 13.1 18.7 16.6 21.8 2 0.4-1.5 0.7-3.2 0.8-4.6zm27.3-2.3c-1.9-1.9-0.7-4.5-4.9-4.1-12.1 0.7-8.3 7.8-11.8 6.8 0.2 4.6 1.8 10.6 7.1 11.1 2.4 0.2 5.1-0.4 6.5-2.3 2.4-3.3 3.1-7.6 3.1-11.5z"/>
					</g>
				</g>
			</g>
		</g>
	</g>
</svg>