<svg version="1.2" xmlns="http://www.w3.org/2000/svg" viewBox="0 0 249 232" width="249" height="232">
	<title>character-02</title>
	<style>
		.s0 { fill: #ffffff } 
		.s1 { fill: #000000 } 
	</style>
	<g id="Introduction">
		<g id="variations">
			<g id="images">
				<g id="a-person/bust">
					<g id="body/Whatever">
						<path id="ðŸŽ¨-Background" fill-rule="evenodd" class="s0" d="m234.9 146.9q3.3-1.7 6.4-3.6c1.4-0.9 0.1-3.1-1.4-2.3q-1.1 0.6-2.3 1.2 0.9-0.7 1.7-1.7c1.9-1.7-0.6-5-2.8-3.6-1.9 1.4-3.9 2.9-6.1 3.8-4.6 2-9.7 2.3-14.7 2.3-1.8-0.1-3.5 0.2-5.3 0.6 0.7-2.8 2.4-4.9 3.3-7.6 0.7-2.7-3.2-4.5-4.6-1.9q-0.5 0.9-0.9 1.9c-3 2.7-8 2.5-11.1 5.4-1.7 1.5-2.5 3.6-2.8 5.7-0.3 1.4 0.1 2.8-0.8 4.1-4.1 5.8-10.6 15-13.9 21.4-2.4-15.2-8.6-34.1-15.1-48-2.1-4.5-4.6-8.9-7.8-12.6 0.4-1.3-0.9-3.5-1.7-2.9-2.5-3-7-3.8-10.5-5.4-4.9-2-8.9-6.3-10.8-11.2-2.6-9.3-8.8-10.4-17.4-10-8.3 0-14.4 3.5-16.2 11.9-3.6 6.4-12.3 5.3-18.5 7-4.6 1.1-9 2.7-13.2 4.7-4.7-4.4-21.4 14.2-22.9 19q1.3 0.2 2.7 0.6c0.7 0.3 0.4 1.4-0.4 1.3q-1.5-0.4-3-0.6 0 0.2 0 0.3-0.2 0-0.4 0 0.4 0.2 0.7 0.5c0.6 0.4-0.1 1.3-0.7 1-0.6-0.5-1.3-0.4-2-0.5 0 1.4-5-0.2-5.8-0.7-3.4-0.4-6.9 0.1-10.1-1.6-4.3-0.9-8.5-1.9-12.8-3-1.1 0.4-2.1 2-1.2 3.1 0.5 0.5-0.2 1.4-0.8 1-2.1-1.2-3.7-3.1-5.1-5.2-0.6-0.7-1.8-0.5-2.7-0.8q-0.1 0.3-0.2 0.7c-3.6 0.6-1 4.6 0.8 5.9-0.9 0.6-1 1.9-0.9 2.9-0.2 0.4-0.3 0.9-0.1 1.3 0.7 1.6 2.2 2.9 3.4 4.2 1.2 1.5 2.3 2.9 3.9 4.1 5.8 4.4 12.9 6.9 20.1 7.9 2.6 0.4 6.3 1 7.9 3.2-0.4 2.5-1.1 5-1.8 7.5-0.9 3.4-0.8 6.9-0.8 10.3-0.2-0.1-0.4-0.1-0.4 0.1-0.3 1.4-0.4 2.9-1.3 4-0.7 2.2-1.2 4.6-1.5 6.9-1.1 11-1.4 22.3 1.1 33.1 1 4.1 2.6 7.9 4.8 11.4 0.6 1 1.7 1.3 2.6 1.1 3.1 1.7 7.1 2.2 10.5 1.8 11.5-3.3 7.4 4.5 23.6 2.1 27.8-3.5 55.9 3.5 83.7-0.6 0.7 5.3 9.6 3.7 12.7 1.5 9.3-6.9 14-28.9 18.7-40 3.2-8.8 8.6-24.3 15.6-30.2 2.1-1.7 4.7-2.6 7.2-3.3 9.6-2.4 19.2-4.7 28.7-7.1 1.7-0.4 1.4-3.2-0.4-3q-3.4 0.3-6.9 0.6z"/>
						<path id="ðŸ–-Ink" fill-rule="evenodd" class="s1" d="m22.4 145.3c-0.7-0.1-1.3-0.3-1.9-0.5q-1.5-0.4-2.9-1c-1.9-0.7-3.7-1.7-5.5-2.8-2.8-1.8-5.3-4.1-7.1-6.8l-0.2-0.2c-1-1.7-3-5.3-0.8-6.5-1.4-1.2-2.8-3.3-2.7-5 0.1-2.3 3-2.3 4.5-1.3 0.9 0.6 1.7 1.5 2.4 2.4q1.2 1.5 2.6 2.9 0.3 0.4 0.7 0.7l0.2 0.2q0-0.1-0.1-0.2c-0.5-1.6 0.1-3.6 1.7-4.3 0.9-0.4 1.9-0.2 2.8 0.2l0.1 0.1q1.9 0.7 3.8 1.3c5.2 1.5 10.6 1.7 16 2.4 2.1 0.3 4.2 0.7 6.2 1.2 0.8-3.3 2.7-6.5 4.8-9.1 9.9-12.5 26.4-16.7 41.4-19.4 1.3-0.2 2.5 1.6 3.3 1.2 1.5-0.8 2.8-2 4-3.2 2.5-2.7 4.2-5.8 6.3-8.8 1-1.5 3.4-0.2 2.4 1.4l-0.4 0.8c-2 3.1-4.1 6.4-6.8 8.8-1.5 1.3-3.1 2.4-5 3-1.4 0.5-3.3 0.9-4.9 0.4l-0.2-0.2q0.1 0.1 0.2 0.2c4 5.8 9.1 10.8 14.4 15.4 5.3 4.7 11.1 8.9 16.9 13l0.5 0.3c9.5-6.9 17.5-15.9 23.1-26.2-1.2-0.1-2.3-0.9-3.3-1.4-1.3-0.7-2.4-1.5-3.3-2.6-1.9-2.4-1.7-5.4-2-8.3 0-0.1 0.2-0.2 0.3-0.1 1.1 0.9 1.4 2.3 1.9 3.5 0.4 1.4 1 2.5 2.1 3.5 1 0.8 2.3 1.5 3.5 2.1 0.6 0.3 3.7 1 4.1 1.7 5.4-1.3 10.6 0.9 14.6 4.6 3.9 3.6 6.7 8.2 9.2 12.8 2.7 4.8 4.9 9.9 6.8 15.2 1.9 5.3 3.3 10.7 4.1 16.3 0.7 4.7 1.1 9.5 1.4 14.3v0.5q6-9.3 12.3-18.6c-1-2.5 0.1-5.1 1.9-7 1.9-2.2 4.7-3.2 7.3-4.4l0.3-0.1c1.3-0.6 2.5-1.2 3.6-2.1 1-0.8 1.8-2 2.9-2.7 1.6-1.1 4.5-0.9 4.6 1.5 0 1.4-0.5 2.8-1.1 4-0.6 1.4-1.4 2.6-2.3 3.7q-0.1 0.1-0.2 0.2c1.3 0.2 2.6 0.4 4 0.4 2.7 0.2 5.5 0 8.1-0.6 2.8-0.6 5.4-1.6 7.9-2.9 2.1-1.1 4-2.6 6.4-2.9q0.3-0.1 0.7-0.1c0.3 0 0.7 0.4 0.6 0.8q-0.2 0.3-0.3 0.6c-0.8 1.8-2.1 3.6-3.7 4.9l-0.1 0.1q0.9-0.3 1.7-0.6c3.1-1.5 6-3.6 9.4-4.5q0.2 0 0.5-0.1c1-0.2 1.6 0.9 1 1.7q-0.2 0.2-0.3 0.4-2.3 2.8-5.1 5.2-0.9 0.8-1.9 1.5 3.1-0.9 6.1-2.2c0.8-0.3 1.4 0.5 1.5 1.2 0.3 2.2-2.2 3.8-3.8 4.9-1.6 1-3.3 1.9-5.2 2.5-3.5 1.3-7.1 1.9-10.8 2.4l-1.8 0.2c-7 1-14.3 2.2-19.4 7.7-2.8 3-4.7 6.8-6.5 10.6-1.7 3.7-3.3 7.6-4.7 11.4-1.5 4-2.8 8.1-4.2 12.2-1.3 3.7-2.9 7.3-4.4 11l-0.2 0.5c-3.2 7.8-7.1 15-12.5 21.5-0.9 1-2.3-0.5-1.5-1.5 5.6-7.3 9.6-15.8 12.8-24.4 1.5-3.8 2.7-7.8 4.1-11.7l0.8-2.3q1.7-4.7 3.5-9.3c1.5-3.9 3.1-7.7 5-11.4l0.2-0.4c1.8-3.6 4-7.1 7-9.8 5.4-4.9 12.6-6 19.6-7l2.2-0.3c2.9-0.3 5.9-0.8 8.7-1.6 1.7-0.4 3.3-1 4.8-1.8q0.9-0.5 1.8-1-2.5 0.7-5 1.1-1.2 0.3-2.4 0.4c-2.1 0.2-4.2 0.2-6.3 0.1-0.2 0-0.3-0.3-0.1-0.4q2.3-0.4 4.5-0.9l0.4-0.1q0.1-0.4 0.4-0.8c0.7-0.9 2.1-1.4 3.1-2q1.5-1 2.9-2.1 1.3-1.1 2.5-2.3 0 0 0 0c-2.1 1-4.2 2.3-6.4 3.1-1.8 0.6-3.7 1-5.6 1.2h-0.1-0.1c-2 0.1-4 0.1-5.9 0.5-0.2 0.1-0.3-0.2-0.1-0.3 1.7-0.7 3.5-1 5.2-1.3q0.1-0.2 0.4-0.4l0.4-0.2c1.4-0.6 2.6-1.3 3.8-2.4q1.5-1.4 2.4-3.2c-2.5 0.6-4.7 2.4-6.9 3.5-2.5 1.2-5.1 2-7.8 2.5h-0.3c-5 0.9-11.1 0.8-15.6-1.9-0.1 0 0-0.2 0.1-0.2 1.3 0.2 2.6 0.4 3.8 0.7-0.2-0.3-0.3-0.7 0-1 1.1-1.3 2-2.8 2.6-4.4l0.1-0.3c0.2-0.8 0.7-2 0.2-2.6-0.4-0.7-1.4-0.6-2-0.3-1.3 0.6-2.2 2-3.2 2.9-1.2 0.9-2.5 1.6-3.9 2.2l-0.3 0.2c-2.3 1-4.9 1.9-6.7 3.8-1 1-1.9 2.3-2.2 3.7q-0.2 0.9 0.1 1.9c0.1 0.5 0.4 0.8 0.2 1.3-0.2 0.7-0.9 1.5-1.3 2.1q-0.7 1-1.4 2-1.4 2-2.7 4.1-2.7 4.1-5.4 8.2-0.8 1.3-1.7 2.7l-0.8 1.3h-0.1q-0.2 0.4-0.4 0.7l0.4-0.7q0 0 0.1 0v0.2c0 0.7-0.4 1.1-1 1.2q0.1 0 0.1 0l-0.4 0.5q0.1 0.2 0 0.4c-0.1 0.3-0.4 0.6-0.7 0.8-4.5 7.1-9 14.3-13.4 21.5q-0.4 3.2-0.7 6.5c-0.4 4.9-0.7 9.9-0.8 14.9-0.1 2.4 0.1 4.8 0.2 7.2q0.1 1.7 0.2 3.4l0.1 0.8c0.1 1.1 0.1 2.2-0.3 3.3-0.3 0.9-1.4 1.1-2.1 0.4q-12.5-0.5-25-0.7c-15-0.3-29.9-0.3-44.9 0q-11.3 0.2-22.6 0.6c-3.7 0.2-7.4 0.3-11.1 0.4-2 0-5.1-0.7-5.3-3q-0.3 0.1-0.7 0.1-0.2 0.1-0.4 0c-3 0.9-6.8-0.4-9.6-1.1l-0.2-0.1c-2.7-0.7-4.9-1.7-6.7-3.9-3-4-4.1-9.2-4.7-14.1-0.5-4.5-0.5-9.2 0.1-13.7-0.3-3.7 0-7.6 0.4-11.3q0.3-2.7 0.8-5.4 0.2-1.5 0.6-3c0.1-0.4 0.1-0.9 0.2-1.3l0.1-0.1q-0.5 0-1.1-0.3c-0.8-0.4-1.1-1.4-1.1-2.3 0-2.7 0.3-5.5 0.6-8.2q0.4-4.1 1.2-8.1l0.1-0.7c0.4-2 0.9-4.1 1.7-5.9-3-0.6-6-1.1-8.9-2q-2.1-0.7-4.1-1.7zm158.9 25.4q-0.2 0.3-0.4 0.7l0.4-0.7q0 0 0 0zm58.5-24.5q0 0 0 0-0.1 0.1-0.1 0.1 0 0 0.1-0.1 0 0 0 0zm-0.7 0.6q-0.1 0-0.2 0.1 0.1-0.1 0.2-0.1zm-0.3 0.2q0.1-0.1 0.1-0.1zm4.1-6.4q0.2-0.1 0.3-0.2zm-3.3 5.7q-0.3 0.2-0.6 0.4 0.3-0.2 0.6-0.4zm-61.7 27.4q0 0-0.1 0c-1.2 0.3-2.4 0.6-3.6 0.9-2.1 0.5-4.1 1.1-6 2-0.4 5.1-1 10.2-1.6 15.3l-0.1 1q1.3-2.4 2.7-4.8 4.3-7.3 8.7-14.4zm-160-31.4q-0.2-0.2-0.4-0.4c-1.2-1.1-2.2-2.3-2.9-3.7l-0.2-0.4c-0.6-1.2-1.4-2.8 0.1-3.7 0.8-0.5 1.8-0.3 2.8 0q0.1 0 0.2 0 0.6 0.3 1.2 0.5c1.5 0.7 2.9 1.8 4.4 2.7 1.6 1 3.1 1.7 5 2.1h0.1c1.7 0.3 3.6 0.5 4.8 2 0.3 0.3 0 1-0.5 0.8-3.3-1.1-6.8-1.4-9.8-3.2-1.3-0.7-2.5-1.6-3.8-2.3q-1-0.6-2.1-1l-0.4-0.1c-0.2-0.1-0.5-0.1-0.7-0.1-0.4 0.2-0.3 0.4-0.1 0.7 0.9 2.8 3.4 5.1 5.7 6.6q0.8 0.5 1.7 1c3.8 2 8.1 3 12.2 4.1q2.4 0.7 3.2 0.9c0.9-0.1 2 0.2 2.6 0.6q1 0.6 1.6 1.5c0 0 0.4 0.3 0.5 0.8q0.3 0.7 0.4 1.4 0 0.5-0.2 0.7c0.4 6.7-1.4 13.3-3.4 19.6l-0.2 0.6-0.1 0.4c-2.2 6.7-4.7 13.3-5.8 20.3-0.8 4.6-0.7 9.5-0.2 14.1v0.4c0.6 4.4 1.6 9.3 4.4 12.9 1.5 1.8 3.2 2.6 5.3 3.2h0.2c1.9 0.6 3.9 1.3 6 1.5 1.9 0.2 3.4-0.5 5.1-1.1 3.6-3.2 5.2-7.8 6.4-12.4 3.1-12 2.7-24.5 1-36.7-1-6.3-2.2-12.6-3.4-18.9-0.7-3.2-1.3-6.3-1.9-9.5l-0.3-1.9q-0.3-1.5-0.5-3.1c-0.2-1.4-0.3-2.7-0.4-4.1-1.7-2.9-4.2-5.2-7-6.9-2.1-1.2-4.3-2-6.5-2.6-6.4-1.7-13.4-1.6-19.9-2.9-2.2-0.5-4.2-1.1-6.3-1.9l-0.3-0.2c-0.9-0.3-1.9-0.5-2.3 0.6-0.4 0.8-0.2 1.6 0.3 2.3 1.3 1.6 3.7 2.4 5.6 2.9q1.7 0.6 3.4 0.9c1.2 0.2 2.3 0.3 3.4 0.7 0.4 0.1 0.5 0.8 0 0.9-1.4 0.3-2.8 0.1-4.2-0.2q-2.3-0.5-4.5-1.3-0.4-0.1-0.8-0.3l-0.2-0.1q0.3 0.3 0.6 0.5c0.1 0 0 0.1 0 0.1-3.5-1.3-6.6-3.6-9-6.3l-0.2-0.2c-0.8-1-2.8-3.9-4.4-3.1-1.6 0.8 1.1 3.8 2.1 5l0.1 0.1c1.1 0.1 2.2 0.8 3.1 1.3 1.6 1 3.3 1.9 5 2.7 3.4 1.6 7 2.7 10.3 4.4 0.1 0 0.1 0 0 0-2.1-0.3-4.2-0.8-6.3-1.5h-0.1l-0.1-0.1q-1.9-0.6-3.8-1.4-2.1-0.8-4-1.9c-1.2-0.7-2.6-1.8-3.9-2q-0.3 0-0.4 0c-1.6 0.1-0.3 2.7 0.1 3.5q1.1 2 2.6 3.6c2.1 2.2 4.5 4 7.2 5.3q1.4 0.7 2.8 1.3zm26.7-6.1q1.9 0.2 3.7 0.9h0.1c0.9 0.4 2.2 0.8 2.5 1.7 0 0.3-0.2 0.5-0.4 0.5-1 0.1-2.1-0.9-3-1.3q-1.4-0.5-3-0.8c-2.3-0.3-4.8-0.1-6.9 0.8-0.2 0-0.3-0.2-0.1-0.2 2.2-1.2 4.6-1.8 7.1-1.6zm-9.9 38c0 0.6-0.2 1.2-0.2 1.8q-0.2 1.4-0.3 2.8-0.4 2.9-0.6 5.7-0.1 1.9-0.2 3.7c1.2-4.5 2.8-8.8 4.3-13.2q-0.4-0.1-0.8-0.2l-0.4-0.1c-0.3-0.1-1.1-0.3-1.8-0.5z"/>
					</g>
					<g id="head/hat-beanie">
						<path id="Path" fill-rule="evenodd" class="s0" d="m119.3 2.5c9.5 0 20.8 4.5 21.8 4.6q0.8 0 6 4.6l-3.8 7.3 0.3 0.3c1.5 1.4 2.7 2.6 3.7 3.6 8 8.2 9.4 40.3 7.5 51.4-1.9 11.2-5.3 22.2-21.6 22.2-16.2 0-34.2-9.8-37-12.8q-2.8-3.1-6.3-3-0.1-0.1-0.3-0.3l-0.3-0.1q-4.8-0.7-6.9-1.8c-2.7-1.6-5.6-9.6-5.6-11.4 0-1.7-4.5-14.5-4.6-15.9 0-1.1-5.8-6.3-5.8-8 0-1.6-1.1-1.5 0-7.3l0.4-1.7c1.2-6.2 3.6-16.5 12.9-20.9 10.2-4.9 30.1-10.8 39.6-10.8z"/>
						<path id="ðŸ–-Ink" fill-rule="evenodd" class="s1" d="m78.1 13.1c5.1-5.5 34-13.8 48.6-12h0.5q1.7 0.2 3.4 0.7c3.7 0.9 7.5 2.2 10.5 4.3 2.5 1.8 10.5 4.7 8.2 9.3 0.8 1.7 1.2 3.7 0.6 5.3-0.1 0.6-0.3 1.1-0.5 1.7 1.9 2.7 3.3 5.8 4.5 8.8 2.1 7.4 3.4 15.2 3.6 22.8 0.6 14.4-0.9 31.6-13.5 41-7.6 5.9-19.5 6.1-28-1.3-0.5-0.5-2.8-2.1-2-2.4q0.3 0.4 0.7 0.7 0 0 0 0l-0.2-0.2c-0.5-0.4-1-1-0.4-0.9q0.1 0.1 0.1 0.1 0.2 0.1 0.3 0.2v0.1-0.1c-0.3-0.3-0.5-0.7 0-0.5l0.1 0.1q0.3 0.3 0.7 0.7 0-0.1 0-0.1l-0.2-0.2c-0.2-0.2-0.2-0.2-0.1-0.4-0.5-0.7 0.4-0.3 0.5 0 0.5-0.2 1 0.9 1.4 1 15.6 12 38.3 1.4 37.9-32.1v-0.7c-0.1-10.7-1-21.7-5.4-31.4q-0.7-1.4-1.5-2.7-0.5-1-1.1-2-1.8-0.1-3.5-0.6-0.6-0.2-1.2-0.4c-5.7 0.4-11.2 0.7-16.9 1l-1.8 0.1c-4.8 0.3-9.8 0.8-13.7 3.8-3.8 2.7-3.8 8.1-7.1 11.1-4.7 3.1-4.7 6-5.6 10.7 0.1 3.5 2.5 8.6-2 10.1 0.8 1-0.3 0.5-0.4 0.1q0 0.1 0 0.1c0.7 1.2-0.3 0.4-0.4 0q-0.1 0-0.1-0.1c0.6 1.1-0.5 0.3-0.4 0.1-1.3-2-4-2.3-5.9-1.8 0 0.1-0.1 0.1-0.2 0.1-8 1.7-6 18.5 2.3 16.8 0.4 0 0.4 0.1 0.4 0.2-0.2-0.5 0.4-0.3 0.4-0.2 0 0 0 0 0 0-0.1-1.1 0.9 0.4 0.8 0.5q0.1 0 0.1 0v-0.1c-0.2-0.5-0.2-0.3-0.2-0.6-0.1-0.3-0.1-0.2-0.1-0.4 0.5-0.3 0.6 0.7 0.8 0.8-0.3-0.3-0.1-0.6 0.2-0.4 1.8 3.9 4.2 7.6 7.3 10.5q0.5 0.4 1.1 0.8c1.3 1.1 3.3 1.8 4.6 2.9q0 0 0 0v0.1l0.4 0.2q0.2 0.2 0.4 0.4 0.1 0.1 0.3 0.4c0 0.1-0.1 0.2-0.3 0.1q-0.1 0-0.2 0 0 0 0 0c0.1 0 0.2 0.4 0 0.3q-0.1 0-0.3-0.1 0.2 0.2 0.3 0.4 0.2 0.2 0.2 0.4 0 0.1-0.1 0.1-0.2 0-0.4-0.1l0.1 0.1c0.1 0.1 0.2 0.4 0 0.3q-0.3-0.1-0.6-0.2 0 0.1-0.1 0-0.8-0.3-1.6-0.7-0.7-0.5-1.4-1-0.6-0.4-1.2-0.9c-2.7-1.7-5.1-3.9-6.9-6.3-3.1 2.7-9.3 0.1-13.2-2-3.4-1.9-4.7-5.4-5-9.1-0.8-5.1-4.9-6.8-4.6-17.9q0 0 0 0-0.2 0-0.4-0.2-0.3-0.1-0.4-0.2l-0.2-0.2q-0.1-0.1-0.2-0.1c-0.1 0.1-0.1-0.1-0.1-0.1l-0.2-0.4c-0.7-0.8-1.4-1.8-1.9-2.6q-0.1 0.1-0.1 0.1 0 0 0 0 0 0 0 0 0 0 0 0 0 0 0 0 0 0 0 0 0 0 0 0c-1.3-1.9-2.6-4.3-2.9-6.6-0.4-1.7-0.3-3.5 0.1-5.1 1.5-5.7 6.6-18.5 13.3-24zm-10.5 35.7q0 0 0 0 0 0 0 0zm47.2 42.7l-0.1-0.1 0.1 0.1q0.1 0.1 0.1 0.2 0-0.1 0-0.1 0 0-0.1-0.1zm11.9-87.6c-9.9-0.8-19.7 1.3-29.1 4l-0.7 0.2c-5.4 1.5-11.1 2.9-15.6 6.2-6.4 4.8-9.6 12.6-12.5 19.7-2.5 5.3-1.2 11.3 2.6 15 0.3-3.7 1-7.2 2.1-10.8 0.2-0.5 0-0.7 0.5-0.8 0.7 9.6-2.8 16.6 4.1 28 3 5.3-0.5 9.2 8 12l0.2 0.1c1.8 0.7 3.7 1.2 5.4 0.8l-0.1-0.2c-0.2-0.3-0.2-0.4 0-0.5q0 0 0 0-0.3-0.6-0.5-1.1-0.1 0-0.3 0c0.1 0.1 0.1 0.2 0 0.3q-0.7 0.2-1.5 0.1h-0.1c-0.5 0-0.9-0.1-1.2-0.2q-0.1 0-0.3 0c-1-0.3-2.1-0.8-2.7-1.4-7.9-4.4-7.1-19.6 2.6-21 0.2-9.6 4.7-25.6 12.2-34.7 6.8-8.4 25.4-12 38.3-10.7q0.3 0.1 0.6 0.2c2 0.1 3.9 1 5.9 1.4-1.5-1-3.1-1.7-4.8-2.4-3.3-2-7.1-3.1-10.8-3.9q-1.1-0.3-2.3-0.3zm-39.6 58c0.6-0.2 0.5 0 0.6 0 3.8-0.4 7.8 2.9 9.9 5.6-0.2 0.2-0.6-0.3-0.7-0.4q0 0-0.1 0l0.1 0.1c0.8 1.2-0.8-0.2-1-0.5q0 0-0.1 0c0.2 0.2 0.6 0.5 0.6 0.8h0.1c1.1 0.9 1 1.6-0.2 0.3q0.1 0.1 0 0.2h0.1c0.5 0.4 1 1.5-0.2 0.4 0.2 0.8-1.1-0.8-1.2-0.8-2.2-1.7-5.5-3.5-8.3-3.7h-0.1c-0.6-0.1-0.8-0.2-0.6-0.6-0.7-0.1-0.5-0.4-0.2-0.4-0.5-0.3-0.1-0.6 0.2-0.5-0.2-0.5 0.5-0.1 0.6-0.2 0.4-0.6 0.5-0.1 0.5-0.3zm-7.8-30.7c1.8-0.6 7.1 1.3 6.7 3.9-0.3 0.6-1.1 1-1.7 0.6l-0.7-0.5c-1.4-0.9-2.6-1.6-4-2.4-0.8-0.4-1.1-1.2-0.3-1.6zm10.2-3.8l-0.7-0.5c-3.7-2.4-9-6.2 0.4-2.3 1 0.4 2.5 0.7 3 1.7 1 1.9-1.4 2-2.7 1.1zm0.4-11c-0.3-1.2 3.5 0.2 4.6 0.5l0.1 0.1c1.1 0.4 2.3 0.7 2.9 1.7 0.8 1.2-0.7 1.5-1.7 0.9-1.9-1.2-4-2.2-5.9-3.2zm9.5-5.3c-2.1-2.3 3.5-0.1 4.4 0.5 0.6 0.4 0.5 1.4-0.1 1.7-1.7 0-2.9-1.4-4.3-2.2zm9.6-2.5c-3.4-2.4 1-1.3 2.6-0.4 1 1-0.1 2.5-2.6 0.4z"/>
					</g>
					<g id="face/Tired">
						<path id="ðŸ–-Ink" fill-rule="evenodd" class="s1" d="m141.1 77.8c1.4-0.3 2.4 0.8 2.1 2.1-0.2 1.4-1.7 1.9-3 1.8-1.4 0-2.8-0.3-4.2-0.4q-2.2-0.1-4.4 0c-1.3 0-2.7 0.3-4 0-0.5 0-0.5-0.7-0.2-1 1.1-0.7 2.4-1 3.5-1.3q1.9-0.5 3.7-0.7 1.9-0.2 3.8-0.2c0.6 0 1.3 0.1 1.8 0 0.3-0.1 0.6-0.3 0.9-0.3zm-3-19.1c8.1 1.4 3.9 15.4-6.5 7.7-1.2-1 0.3-3.2 1.6-2.3 1.5 1.1 4.4 3.5 6.4 1.4 1.7-2.4-0.7-4.7-2.3-5.6-0.4-0.3-0.1-1.3 0.8-1.2zm-12.4-6.1c2.1-0.3 2.5 2.7 0.4 2.9q-0.7 0.1-1.3 0.1 0 0.3 0.1 0.5 0 0.2 0 0.4c0.1 0.7-0.5 1.5-1.1 1.9-0.6 0.3-1.5 0.4-2.2 0-0.3-0.3-0.6-0.5-0.8-0.9q-0.4-0.5-0.4-1.2c-1 0.2-2 0.6-3 0.8q0.1 0 0.1 0.1c0.1 0 0 0.1 0 0l-0.5-0.1q-0.2 0.1-0.5 0.1c-0.2 0-0.4-0.3-0.2-0.6 0.9-0.9 2.2-1.5 3.5-2l1.2-0.5c1.5-0.6 3.1-1.2 4.7-1.5zm17.2 1c1.4-0.2 2.8-0.1 4.2 0 2.3 0.1 1.3 3.5-0.6 2.7q0.1 0.2 0 0.4c0 0.6-0.2 1.1-0.8 1.4-0.5 0.4-1.2 0.3-1.7 0-0.5-0.3-0.8-0.7-0.9-1.3-0.1-0.5-0.1-0.9 0-1.3q0-0.2 0.2-0.4-0.2-0.1-0.4-0.1c-1.2-0.3-2.4-0.2-3.5-0.4-0.2 0-0.2-0.2-0.1-0.3 1.1-0.5 2.4-0.6 3.6-0.7zm-17.4-10.7c0.8-0.3 1.8 0.3 2.2 1 0.5 0.8 0.3 1.7-0.3 2.4-0.9 1-2.6 1.6-3.8 2.2l-0.1 0.1q-1.9 0.9-3.9 1.6c-1.3 0.5-2.7 0.9-4 1.2q-1.1 0.3-2.2 0.4c-0.6 0.1-1-0.1-1.6-0.1-0.1 0-0.1-0.1 0-0.1 0.5-0.3 0.9-0.8 1.4-1.1q0.9-0.4 1.8-0.9c1.2-0.6 2.3-1.3 3.5-2q1.8-1.1 3.5-2.3c1.2-0.8 2.2-1.9 3.5-2.4zm14.4-0.6c1-0.2 2 0.3 2.3 1.3 0.3 1 0 1.2 0.7 1.9 0.6 0.6 1.3 1.1 1.9 1.6l1 0.7c1.8 1.3 3.6 2.5 5.6 3.4 0.2 0.1 0.1 0.3-0.1 0.3-3.2 0.1-6.3-0.3-9.2-1.8-1.4-0.7-2.8-1.5-3.5-2.9-1-1.5-0.9-4.1 1.3-4.5z"/>
					</g>
					<g id="facial-hair/*-None">
					</g>
					<g id="accessories/*-None">
					</g>
				</g>
			</g>
		</g>
	</g>
</svg>