<svg version="1.2" xmlns="http://www.w3.org/2000/svg" viewBox="0 0 170 251" width="170" height="251">
	<title>character-03</title>
	<style>
		.s0 { fill: #ffffff } 
		.s1 { fill: #000000 } 
	</style>
	<g id="Introduction">
		<g id="variations">
			<g id="images">
				<g id="a-person/bust">
					<g id="body/Tee-2">
						<path id="ðŸŽ¨-Background" fill-rule="evenodd" class="s0" d="m6.2 172.2l151.4 12 0.1 1q3.8 24.8 3.9 33.7v0.2q0 8.7 5.3 27.9l0.3 0.7-161.2 0.3-1.9-38.4zm89.6-82.3c6.2 0.3 12.4 2.9 12.8 4.6 1.1 3.8 2.8 19.8 8.5 22.3 5.6 2.5 17.6 0.2 21.1 6.1 3.4 5.9 14.7 30 14.7 35.6q0 5.6-110.5 3.9 1.4-45.2 11.7-47.5l0.7-0.1c9.9-2.2 15.9-2.3 19.3-5.8 3.5-3.6 4.1-9.7 5.6-14.5 0.8-2.6 8.5-5 16.1-4.6z"/>
						<path id="ðŸ–-Ink" fill-rule="evenodd" class="s1" d="m109.3 99.2q0 0 0.1 0c0.5 0.3 0.6 0.7 0.7 1.2 0.3 0.7 0.5 1.4 0.8 2.1 0.5 1.4 1 2.8 1.6 4.1 0.6 1.4 1.2 2.8 1.9 4.2q0.5 1 1 1.9c0.3 0.5 0.5 1.1 0.9 1.5q0-0.2 0.1-0.4-0.1 0.1-0.2 0.1c0 0.1-0.2 0-0.1-0.1q0.3-0.5 0.7-0.7c0.7-0.8 17.2 3.2 21.7 7.6 8.2 8.1 13.7 18.1 17.3 28.7 2 5.8 3.9 11.7 5.8 17.6 2 6.2 4.1 12.4 6.1 18.6 0.4 1.4-0.5 2.7-1.7 3.1q-3.4 1.3-6.9 2.4c1.1 4.3 1.9 8.6 2.5 13 1.1 9.1 1.3 18.3 3.1 27.3 0.4 2.1 0.9 4.1 1.5 6.1l0.1 0.5c0.4 1.2 0.7 2.4 1.1 3.5 0.3 1 0.8 2 1 3.1 0.3 1.2-0.1 2.5-1.2 3.1-0.9 0.5-2.2 0.3-2.8-0.6q-0.2-0.3-0.2-0.6-0.1-0.3-0.2-0.6-0.1-0.1-0.1-0.2l-0.1-0.2q-0.2-0.8-0.4-1.6-0.4-1.2-0.8-2.5l-0.1-0.4q-1-3.1-1.8-6.1c-1.8-7.4-2.2-15.1-2.7-22.7l-0.1-0.4c-0.4-6.8-0.7-13.5-0.1-20.3h-0.1-0.1q-1.1 0.4-2.2 0.7 0 0-0.1 0-0.7 0.2-1.4 0.4l-0.3 0.1-0.2 0.1h-0.2c-0.7 0.2-1.4 0.5-2.2 0.4q-1.8 0.3-3.6 0.3 0.6 9.1 1.3 18.2c0.5 6 1.2 12.1 1.9 18.1q0.5 4.5 1.1 9 0.3 2.2 0.7 4.5c0.3 1.5 0.8 3.1 0.5 4.7q0 0 0 0c-0.1 0.4-0.4 0.8-0.8 1.1-0.9 0.5-2.1 0.2-2.6-0.7q-0.1-0.1-0.1-0.2c-0.5 0.2-1.1 0.3-1.8 0.3l-9.3 0.1q-6.3 0.1-12.6 0.2c-13.3 0.2-26.5 0.4-39.8 0.5l-5 0.1c-7.4 0.1-14.9 0.2-22.3 0.2-3.8 0-7.5 0-11.2-0.1q-2.7-0.1-5.4-0.2h-0.3c-1.5-0.1-3-0.2-4.4 0.1-0.4 0.8-1.4 0.9-1.9 0.2-1.2-1.8-1.5-4.3-1.7-6.4l-0.1-0.8q-0.4-3.6-0.6-7.3c-0.6-8.6-0.8-17.2-0.5-25.8 0.1-4.4 0.5-8.8 1-13.2q0.2-2 0.4-4v-0.5q0-0.3 0-0.5v-1.3q-0.1-1.6-0.1-3.3v-0.6-1.2c-1-0.1-2.2-0.5-3.1-0.6q-2.1-0.5-4.3-0.9-4.4-1-8.7-2.2l-0.6-0.2c-2.6-0.7-5.3-1.5-7.8-2.7-0.9-0.4-1.9-0.9-2.8-1.6q-0.1 1-0.2 2.1-0.1 2-0.2 4.1l-0.1 1.2q-0.3 3.3-0.4 6.5c-0.2 9.4-0.3 18.9 0.2 28.3q0.4 7.1 1.1 14.2 0.4 3.4 0.9 6.9c0.3 2.3 0.9 4.7 1.1 7.1 0.2 2.3-3.3 2.6-3.9 0.5-0.7-2.5-0.9-5.2-1.2-7.8l-0.1-0.3q-0.6-4.1-1-8.3c-0.9-9.5-1.2-19.1-0.7-28.7 0.3-4.6 0.8-9.2 1.5-13.7l0.1-0.5c0.3-2 0.6-4.1 1-6.1l0.1-0.8c0.3-1.7 0.6-3.6 1.1-5.3l-0.2-0.2c-0.3-0.2-0.6-0.6-0.8-0.9-0.8-0.1-1.5-0.7-1.4-1.7 0.3-3.3 1.5-6.7 2.6-9.9q1.7-4.8 3.8-9.4c5.1-10.7 12.4-20.4 21.3-28.1 4.8-4.2 9.9-7.8 15.7-10.4 2.8-1.3 5.7-2.3 8.8-2.9 1.5-0.2 3-0.4 4.6-0.5 1.2-0.7 2.7-0.4 3.9 0.4h0.1l0.3 0.1c0.1 0 0.1 0.1 0 0.2q0 0 0 0 0.3 0.2 0.6 0.5c0.5 0.6 0.5 1.3 0.2 1.9 1.8 1.6 2.9 3.7 4.1 5.8q1.9 3.5 4.9 5.9c7.3 6.1 18.1 8.8 27.3 6 6.8-2.2 12.6-7.9 14.2-14.8-0.4 0.2-0.8 0.2-1.2 0-1.8-0.6-2.5-2.6-3.2-4.3q-1.1-2.5-1.8-5c-0.4-1.7-0.7-3.5-0.8-5.3q0-1 0-2.1l0.1-0.6c0-0.5 0-1 0.4-1.4zm-29.7-4.7c0 0 0.1-0.1 0.2 0 1.6 3.3 0.5 7.9-1 11.1-1.6 3.3-4 5.8-6.9 8q-0.6 0.5-1.2 0.9c-2.4 1.7-4.5-2.8-1.7-3.7 2.8-1.5 5.2-4.1 6.8-6.8 0.9-1.5 1.6-3 2.2-4.6 0.6-1.6 1-3.3 1.6-4.9z"/>
					</g>
					<g id="head/Twists">
						<path id="ðŸŽ¨-Background" fill-rule="evenodd" class="s0" d="m131 55.6c1.8 13.7 2.8 28.8-5.7 40.3-1.5 1.8-7.9 8.9-20.2 9.5-10.3 0.6-20.8-2.5-29-8.6-0.9-0.7-1.1-1.7-0.9-2.4-2.9-2.6-5.1-6.3-5.8-10.2-0.2-0.7-1-0.7-1.7-0.9-4-0.7-8.7-1.9-9.4-6.6-1-9 7.9-10.7 3.6-21.4-2.5-9.5-14-24.8-5.6-33.2 1.8-1.8 4.4-2.8 6.9-2.3 16.2-7.7 34.9-9.8 52.4-5.6 2.5 0.6 5.2 1.2 7.2 2.9 4.5 3.7-3.8 7.6-2.2 12.4 1.4 2 7.3 12.1 8.5 17.4 2.3 9.3 0.7-0.8 1.9 8.7zm-74.5-24.7c-0.4-0.2-0.8-0.4-1.1-0.8q0.1 1.4 0.4 2.7 0.3-1 0.7-1.9zm5.5-10.5c-1.6 0.2-3 1.1-4 2.3 1.2-0.9 2.6-1.6 4-2.3z"/>
						<path id="ðŸ–-Ink" fill-rule="evenodd" class="s1" d="m91.2 3.1c0.4-1.2 1.5-2 2.7-1.8 1.1 0.1 2.3 1.2 2.2 2.4q0 0.4-0.1 0.7v0.1q-0.1 0.5-0.4 1-0.3 1-0.6 1.9 0.4 0 0.9 0.1 0.5-1.2 0.9-2.5c0.4-0.8 0.6-1.9 1.3-2.6 0.8-0.9 2.3-1.1 3.4-0.4 1.1 0.6 1.5 1.8 1.2 3-0.1 0.6-0.5 1.1-1 1.3l-0.1 0.1-0.4 0.9q0.2-0.1 0.4-0.1 0.3-0.1 0.7-0.2 0.8-1.5 1.8-3c0.7-1.1 2.2-1.6 3.4-0.9 1.1 0.7 1.7 2.3 0.9 3.5q-0.9 1.2-1.7 2.5 0.2 0 0.3 0.1 0.1-0.1 0.1-0.2c0.6-0.7 1.3-1.3 2.1-1.9 0.6-0.6 0.9-1.5 1.8-2 1.2-0.6 2.5-0.3 3.2 0.8 1.4 2.4-1 4.2-2.5 5.6q2-1.2 4.1-2.2 1.2-0.6 2.5-1.1c1.2-0.4 2.2-0.3 3.2 0.6 0.5 0.3 0.7 1.2 0.5 1.7-0.4 1.1-1.1 1.7-2.2 2-0.8 0.3-1.6 0.4-2.3 0.6q-2 0.6-3.9 1.4 0.2 0.1 0.3 0.2 1.4-0.4 2.8-0.8 2.3-0.5 4.7-0.7l0.6-0.1c1.9-0.2 4.2-0.5 5.4 1.3 0.4 0.6 0.4 1.6 0 2.2-0.8 1.2-1.7 1.4-3 1.4q2 0.2 4 0.6 1.4 0.2 2.7 0.4l0.5 0.1c1.1 0.2 2.3 0.4 3.3 1 2.1 1.4 1.1 4.1-1.2 4.4-1.1 0.2-2.4-0.3-3.5-0.5q-1.6-0.3-3.2-0.6-0.8-0.1-1.6-0.2 1.7 0.2 3.3 0.7l0.3 0.1c2.1 0.6 5 1.7 5.6 3.9 0.4 1.4-0.7 2.6-2 2.7-1.2 0-2.2-0.7-3.3-1.2-0.7-0.4-1.5-0.7-2.3-1q-1.3-0.4-2.6-0.6 1.1 0.6 2.1 1.3l0.3 0.3c1.9 1.3 4.7 3.4 4 6-0.2 0.8-1.1 1.6-1.9 1.5-2.3-0.2-3.5-2.6-5.2-3.9q-0.7-0.5-1.4-1c2.5 3.1 4.6 6.6 6.1 10.3 3.4 8 4.5 15.5 4.5 24.1v0.3c0 4.7-0.1 9.6-0.6 14.3-0.4 4.4-1.2 8.7-3.2 12.7-3.3 6.7-9.8 11.9-17 13.8-7.9 2.2-16.8 0.5-23.4-4.6-1.6-1.2 0.6-4.1 2.3-2.9 6.8 4.8 15.6 6.3 23.4 3.1 6.1-2.6 11.1-8.1 13.2-14.4 1.4-4 1.8-8.3 2.2-12.5l0.1-0.3c0.5-4.4 0.8-8.8 0.8-13.2 0-8.3-1.2-15-4.8-22.5-1.7-3.5-3.9-6.7-6.6-9.6-0.8 0.2-1.6 0-2.4-0.1q-0.6-0.1-1.3-0.1 0.7 0.4 1.3 0.8l0.5 0.4c1.7 1.2 3.8 2.5 3.4 4.8-0.1 0.7-0.8 1.2-1.4 1.4-2.2 0.5-3.7-1.6-5.1-2.9-1.3-1.1-2.7-2.1-4-3q-0.5-0.4-1-0.7 0.5 0.5 0.9 1.1l0.4 0.5c1.3 1.5 3.1 3.6 2 5.6-0.3 0.6-1 1-1.7 1-2.2-0.1-3.1-2.6-4.2-4.2-0.9-1.4-1.9-2.7-2.9-4q-0.4-0.6-0.9-1.1c-4.7 0.2-9.4 0.9-14 1.9-3.2 0.6-6.3 1.5-9.4 2.5l-0.3 0.1c-1.7 0.5-3.4 1.2-4.6 2.4-0.2 0.8-0.1 1.7 0.1 2.5l0.1 0.6c0.6 2.7 0.9 5.2 0.7 7.9-0.3 2.8-1.2 5.3-2.2 7.9-0.5 1.2-1 0.9-1.1 2.2-0.2 1-0.1 2.1 0 3.1l0.1 0.8c0.2 2.2 0.3 4.7-1.2 6.5-0.2 0.3-0.7 0.2-0.9-0.1q-0.1-0.2-0.2-0.4c-0.7-1-1.7-1.5-3-1.8-0.1 0-0.1-0.2 0.1-0.2 1-0.1 2 0.1 2.8 0.6-0.4-1.3-3.4-0.7-4.5-0.4-1.2 0.4-2.4 0.9-3.5 1.7-2.1 1.5-3.3 4-3.3 6.6 0.1 2.6 1.4 5 3.7 6.2 1.1 0.6 2.4 0.9 3.6 0.9 1.3 0 2.5-0.6 3.8-0.5 0.8 0 1.3 0.8 0.9 1.6q-0.4 0.7-1.1 1.1c1.1 2.5 2.4 4.8 4 7q1.3 1.8 3 3.3c0.8 0.8 2.7 1.7 2.5 3.1 0 0.4-0.2 0.7-0.7 0.9-1.3 0.6-3-1.3-3.9-2.3q-1.7-1.7-3.1-3.7c-1.6-2.4-2.6-5-3-7.8-2.2 0.7-5 0.1-6.8-0.7-5.6-2.6-7.4-10-4-15q1-1.5 2.4-2.5-0.3-0.2-0.6-0.4c-0.9-1-1.6-2.4-2.2-3.6l-0.1-0.1q-0.9-1.6-1.7-3.3l-0.2-0.4c-1.1-2.5-2.2-3.6-3-6.2q-1.2-3.8-1.8-7.8l-0.1-0.7c-0.3-1.5-0.5-3.1-0.3-4.7-1.2 0.4-2.4 0.6-3.6 0.1-0.7-0.4-1.2-1.5-0.9-2.3q0.3-0.9 0.9-1.4-0.4-0.2-0.7-0.5l-0.1-0.2c-0.7-0.6-0.8-1.7-0.4-2.5q0.1-0.1 0.2-0.2c0.4-0.8 1.2-1.3 2.1-1.2q0.2 0 0.4 0-0.6-0.2-1.2-0.5c-1.6-1-1.4-3.7 0.6-4.2 0.8-0.2 1.7-0.1 2.6 0.1q0 0-0.1-0.1c-0.7-0.4-1.2-1.2-1.2-2.1 0.1-0.9 0.4-1.6 1.2-2.1 0.8-0.4 1.8-0.5 2.5 0q0.9 0.6 1.8 1.4c-0.6-0.8-1.1-1.6-1.3-2.4-0.2-1 0.2-2.2 1.1-2.7 0.8-0.5 1.6-0.4 2.3-0.1-0.1-0.5 0.1-1.1 0.4-1.6 0.8-1 2.1-1.6 3.3-0.8 0.2 0.1 0.4 0.2 0.6 0.4-0.4-1.2-0.1-2.5 1.3-3.1 0.8-0.3 1.9-0.1 2.6 0.5-0.5-2.5 3.1-4.3 4.5-1.8q0.5 0.9 0.9 1.8l0.1 0.3-0.1-0.2v-0.2c-0.4-0.9-0.9-1.8-1-2.8-0.2-1.4 0.4-2.8 2-3 0.8-0.1 1.7 0.2 2.2 0.9-0.3-2.2 2.2-3.9 4-2.2 0.9 0.8 1.3 1.9 1.9 3q0.4 0.8 0.9 1.7 0.1-0.2 0.2-0.3-0.6-2-1.1-4.2c-0.2-1.3 0.4-2.7 1.8-3 1.2-0.4 2.8 0.4 3.1 1.7q0.3 1.4 0.6 2.8 0.3-0.1 0.5-0.1 0.1-0.3 0.1-0.5l0.1-0.6c0.1-1.4 0.3-3 1-4.2 1.2-2.1 4.4-1.2 4.5 1.2 0 1.2-0.5 2.5-0.7 3.7q-0.1 0.8-0.1 1.6 0.5-2.7 1.3-5.3 0.1-0.3 0.2-0.6zm-27.5 69.2c2.8-0.4 5.3 1.2 7 3.4 0.3 0.4 0.1 0.9-0.2 1.3-0.2 0.2-0.4 0.2-0.7 0.3-0.4 0-0.8-0.3-1-0.6-1-2.1-2.9-3.4-5.1-4.3-0.1 0-0.1-0.1 0-0.1zm3.9-38.1v-0.1c0.6-0.6-0.3-1.5-0.9-0.9-0.6 0.6-1 1.4-1.3 2.1-0.4 0.7 0.7 1.4 1.1 0.7l0.1-0.4c0.3-0.5 0.6-1 1-1.4zm-7.9-1.2c0.8-0.2 0.5-1.4-0.3-1.3q-1.6 0.3-3.2 0.6c-0.8 0.1-0.4 1.3 0.4 1.2q1.5-0.3 3.1-0.5zm47.8-8.4c-0.8-0.2-1.1 1-0.3 1.2 1 0.4 2.1 0.8 3.1 1.3 0.7 0.3 1.4-0.8 0.7-1.1-1.2-0.6-2.3-1-3.5-1.4zm-48-1.6c-0.8-0.3-1.1 0.9-0.3 1.2l2.7 1.1c0.8 0.3 1.1-0.9 0.3-1.2zm57.6-3l-0.1-0.1c-0.7-0.4-1.3 0.7-0.6 1.1 0.4 0.3 0.9 0.5 1.2 0.8h0.1c0.6 0.6 1.5-0.3 0.9-0.9-0.4-0.4-1-0.6-1.5-0.9z"/>
					</g>
					<g id="face/Fear">
						<path id="ðŸ–-Ink" fill-rule="evenodd" class="s1" d="m119.4 83.9h0.2c1.1-0.1 2.3-0.3 3.4 0.4 1.4 0.9 1.4 2.9 0 3.8-1.2 0.7-2.4 0.4-3.6 0.4q-1.6 0-3.1 0-3.1-0.1-6.2-0.1-2.8 0.1-5.6 0h-0.8c-1.9-0.1-3.9 0-5.8-0.4-0.4-0.1-0.5-0.6-0.2-0.8 1.9-0.9 4-1.2 6-1.7 2.1-0.4 4.1-0.7 6.2-0.9q3.1-0.4 6.2-0.5 1.6-0.1 3.3-0.2zm-6.3-26.6l0.2-0.1c1.5-1 3.6-1.9 5.3-1.2q0.2 0.1 0.3 0.2 0.6 0 1.3 0.1c3.3 0.5 6.4 2.7 8 5.8 1.7 3.4 0.9 7.1-2.2 9.4-1.5 1.2-3.3 2-5.2 2.2-0.6 0.1-1.2 0.1-1.8-0.1q0.4 0.9 0.6 1.9c0.3 2.2-0.6 4.1-2.7 5.1-1.8 0.9-4.4 1.2-6.2 0.1-1.6-0.9-1.1-4 1-3.7 1.3 0.2 2.6 0.7 3.9 0.1 1.2-0.5 0.5-2.1 0.1-3-0.5-1.4-1.3-2.7-2-4.1l-0.1-0.3c-0.4-0.9-1-1.8-1.4-2.8-0.2 1.1-0.6 2.3-1.1 3.3-1.1 2.4-3.2 4-5.7 4.7-2.7 0.7-5.7 0.8-8.4 0.8-2.8-0.1-5.7-0.9-7.7-2.8-3.7-3.7-2.6-10.1 1.3-13.1 2.5-2 6-3.3 9.2-3 1.7-0.4 3.5-0.1 5.1 0.2 2.2 0.5 4.3 1.6 5.7 3.3q0.2-0.4 0.4-0.8c0 0-0.1-0.1 0-0.2q0.1-0.1 0.3-0.3 0.7-0.9 1.8-1.7zm-26.6 17.1c-0.1-0.2 0.1-0.4 0.3-0.3 1.5 1 3.1 1.9 4.9 2.4 1.7 0.5 3.5 0.4 5.2 0.9 0.6 0.1 0.5 1 0 1.2-1.9 0.7-4 0.1-5.8-0.7-1.8-0.7-3.4-1.9-4.6-3.5zm10.2-15.7h0.1-0.1c-2.2 0.7-3.9 1.9-5.4 3.6-2.4 3-2.4 7.7 1.2 9.7 2 1 4.3 1.1 6.5 1l0.4-0.1c1.9-0.1 3.9-0.2 5.7-0.7 2-0.6 3.4-1.8 4.2-3.8v-0.1c0.8-2.1 1.2-4.3-0.2-6.1-2.4-3.1-8-3.7-11.4-2.3-0.9 0.4-1.5-0.5-1-1.2zm22.1-0.8q-0.1 0.1-0.2 0.2c-0.7 0.4-1.4 0.4-2.2 0.6-0.7 0.1-1.4 0.4-2 0.7-1.1 0.5-2.1 1.1-3.1 1.8q0.3 0.5 0.6 1c0.4 1.1 0.5 2.1 0.5 3.2 0.7 0.6 1.2 1.3 1.8 2l0.6 0.6q0.9 1 1.7 2 0.6 0.7 1.1 1.3 0-0.2 0.2-0.4c0.3-0.4 0.8-0.7 1.3-0.5 0.5 0.1 0.9 0.3 1.4 0.3 0.6 0 1.2-0.1 1.8-0.3 1.2-0.4 2.4-1.1 3.2-2 2-2 1-4.9-0.6-6.8-1.5-2-3.7-3.2-6.1-3.7zm-17.4 4.9c0.7-0.2 1.6 0.1 1.9 0.7l0.2 0.5q0 0 0 0 0.1 0.2 0.1 0.4l0.2 0.2q0.3 0.3 0.5 0.5c0.3 0.6 0.4 1.3 0.2 1.9-0.3 1-1.2 1.6-2.2 1.7-3 0-3.7-5.1-0.9-5.9zm18.1-0.9c1.4-0.1 2.3 1.1 2.4 2.4 0.1 0.7 0 1.5-0.2 2.2-0.4 1-1.3 1.6-2.4 1.5-0.8-0.1-1.5-0.8-1.8-1.6-0.2-0.6-0.4-1.4-0.4-2.1 0-1.4 1.1-2.4 2.4-2.4zm-18.3-11.3c1.4-0.3 2.8 0.4 3 1.9 0.2 1.5-0.9 2.5-2.3 2.7-2.7 0.3-5.4 0.3-8.1 0.5q-1.6 0-3.3 0h-0.5c-1.1 0.1-2.4 0.3-3.4-0.3 0 0 0-0.1 0-0.1 0.7-0.8 2-1.2 3-1.5h0.1q1.8-0.8 3.7-1.3l0.7-0.2c2.3-0.7 4.7-1.4 7.1-1.7zm9-0.8c0.8-0.3 1.7-0.1 2.3 0.4 1.9 0.6 4 1 6 1.5l0.5 0.1c2.5 0.6 5.2 1.1 7.6 2.3 0.2 0.1 0 0.4-0.2 0.4-2.5 0.3-5.3-0.2-7.9-0.5-2.6-0.3-5.3-0.8-7.9-1-1.9-0.1-2.2-2.5-0.4-3.2z"/>
					</g>
					<g id="facial-hair/*-None">
					</g>
					<g id="accessories/*-None">
					</g>
				</g>
			</g>
		</g>
	</g>
</svg>