<svg version="1.2" xmlns="http://www.w3.org/2000/svg" viewBox="0 0 175 175" width="175" height="175">
	<title>female-01</title>
	<style>
		.s0 { fill: #ffffff } 
		.s1 { fill: #000000 } 
	</style>
	<g id="Introduction">
		<g id="variations">
			<g id="images">
				<g id="a-person/bust">
					<g id="body/Dress">
					</g>
					<g id="head/Medium-Bangs-3">
						<path id="ðŸŽ¨-Background" fill-rule="evenodd" class="s0" d="m94.6 44.3c12 0 27 13.7 31.4 19.5 3.7 4.9 3.2 30.1 3.2 45.1 0 3.1-1.4 9-1.9 12-1.9 11-10.1 20.2-26.3 20.2-13.2 0-23.4-4.2-33.2-14.9-2.3-2.4-13.2 6.3-15.5 3.2-5.8 0-10.7-54.7 0.8-71.1 11.5-16.4 29.5-14 41.5-14z"/>
						<path id="ðŸ–-Ink" fill-rule="evenodd" class="s1" d="m58.6 48.1c6.9-6.3 16.1-9.3 25.5-9.1 4.8 0.1 9.6 1 14.1 2.6q3.4 1.2 6.6 3 1.2 0.6 2.2 1.4l0.2 0.2c1.8 0.6 3.4 1.8 4.8 3.2 3-0.3 5.9 0 8.8 0.9 3.9 1.3 7.6 3.6 10.2 6.9 3 3.8 4 8.4 3.6 13.2l-0.1 0.8c-0.3 4.3-0.9 9.7-4.4 12.5q-0.4 0.3-0.9 0.5c2.3 3.8 4.1 8 5.2 12.3 4.2 16.5 1 33.6-4.1 49.4-0.4 1.3-2.4 2.2-3.4 0.9-1.7-2.3-4.4-4-7.3-4.3-1.8-0.2-3.6 0.1-5.3-0.7q-1.1-0.4-1.8-1.5c-2.9 1.1-6 1.6-9 1.5-5.1-0.2-10.5-2-14-5.8-0.5-0.6-0.7-1.3-0.5-1.9q0.6-0.3 1.3-0.4c4.4 2.6 9.3 4.4 14.5 4.5 3 0 6-0.4 8.4-2.3q0.8-0.6 1.5-1.3c5.1-3.3 8.7-8.9 10.4-14.9 1.6-5.6 1.4-11.4 0.9-17.1l-0.3-3c-0.5-4.5-0.8-8.9-1-13.4h0.1c1.1 0 1.1-1.7 0-1.7-2.8 0.2-5.6-0.2-8.4 0-0.1-1.4-0.2-2.7-0.5-4-0.3-0.7-1.5-0.8-1.7 0-0.2 1.2-0.2 2.4-0.2 3.5-4.2 0-8.4-0.4-12.6-0.2-0.8-0.8-1.1-2.3-1.4-3.3q-0.1-0.3-0.2-0.5-0.5 2.2-1.3 4.3h-1.1c-5.8 0-11.8 0.2-17.5 1.4-0.4-0.3-0.6-0.8-0.7-1.3-0.4-3.1-1-6.2-2-9.2l-0.2-0.4q0-0.1 0-0.1c-0.8 1.2-1.7 2.4-2.7 3.5q-0.9 0.9-1.9 1.8-0.9 1-1.8 2.1 0 0.1 0 0.3 0.3 2.2 0.1 4.4c-0.3 2.5-1 5-2.2 7.4v0.2c-0.2 1.1-0.4 2.2-1 3 0.7 0.8 1.3 1.8 1.6 2.9 0.3 1-1 1.9-1.7 1.1q-0.9-1-1.9-1.6-0.1 0.1-0.2 0c-1.9-1-5.1-0.7-7 0.3-2.4 1.2-3.3 3.7-3.1 6.3 0.3 2.5 1.4 5.3 3.4 6.6 1 0.6 1.7 0.6 2.8 0.3 0.3 0 0.7-0.3 0.9-0.5l0.1-0.1c0.7-0.5 1.3-0.9 2.1-0.9 0.8-0.2 1.6 0.1 1.9 0.9v0.1c0.2 0.4 0.4 1 0.4 1.6-0.1 0.7-0.4 1.4-0.9 1.9q-0.1 0.1-0.2 0.2c8.2 9 9.3 22.9 5 34.1q-0.2 0.7-0.5 1.5c-0.8 1.6-3.5 1.1-3.8-0.5q-0.2-0.8-0.4-1.5-0.3-1.3-0.8-2.6l-0.1-0.4q-0.3-1-0.7-2.1v-0.1q0-0.1-0.1-0.1l-0.4 0.9-1.3 2.8c-0.6 1.4-2.5 0.6-2.6-0.6 0-0.2 0-0.5 0-0.8q-0.2-2.6-0.9-5l-0.2 0.2c-2.5 3.1-5.5 6.1-9.6 6.8-1 0.2-2.2-0.9-1.5-1.9q0.5-0.7 0.9-1.3-0.4-0.2-0.7-0.4c-1.5-0.8-2.8-2.1-3.9-3.5-2.3-3-3.1-6.7-3.3-10.4-0.2-3.9 0.1-8 1.2-11.8 0.5-1.6 1.1-3.1 1.8-4.7q-0.1-0.2-0.1-0.4-1.2-3.2-2-6.6c-1-4.5-1.6-9.2-1.7-13.8-0.1-8.4 1.3-16.8 4.3-24.6 3.2-8 7.9-15.7 14.3-21.6zm-3.9 72.9c-0.6-0.9-2-0.1-1.5 0.8 0.9 1.5 1.4 3.1 1.9 4.7 0.3 1 2 0.6 1.6-0.4l-0.1-0.4c-0.5-1.6-1-3.3-1.9-4.7zm5-17.3l0.4-0.2c1.2-0.5 2.2-0.9 3.6-0.4 1.9 0.6 4 2.8 2.7 4.9-0.5 0.7-1.3 1-2.2 0.8-1.4-0.3-1.8-1.6-2.6-2.7l-0.1-0.1c-0.4-0.7-1-1.6-1.8-1.9-0.1 0-0.2-0.3 0-0.4zm1.1-43.9l0.1-0.1c0.8-0.7-0.4-1.9-1.2-1.2-3.7 3.3-5 8.4-7 12.8-0.4 1 1.1 1.9 1.5 0.9 1.8-4.2 3.1-9.2 6.6-12.4zm44.7-1.4c-1-0.5-1.8 0.9-0.9 1.4 3.3 1.5 4.7 4.9 6.1 8 0.4 1 1.8 0.1 1.4-0.9l-0.2-0.5c-1.4-3.2-3.1-6.5-6.4-8zm5.1-2.1c-1-0.3-1.4 1.3-0.4 1.7 2.8 0.9 4.7 3 6.3 5.4 0.6 0.9 2.1 0.1 1.5-0.8-1.9-2.8-4.1-5.2-7.4-6.3z"/>
					</g>
					<g id="face/Smiling">
						<path id="ðŸ–-Ink" fill-rule="evenodd" class="s1" d="m105 126.3c-1.4-0.6-2.7-1.6-3.6-2.8-0.4-0.4-0.4-0.9-0.4-1.3 0.1-0.5 0.4-0.9 0.8-1.2 0.3-0.3 0.8-0.4 1.3-0.3 0.4 0 0.8 0.2 1.1 0.7v0.1c0.6 0.7 1.3 1.3 2.1 1.7 0.8 0.4 1.7 0.6 2.6 0.5 1.7-0.2 2.9-1.1 4.2-2.4q0.2-0.3 0.5-0.5 0.1-0.2 0.4-0.3 0.2-0.1 0.5 0 0.3 0.1 0.4 0.3 0.2 0.2 0.2 0.5c-0.1 1.4-0.8 2.5-1.8 3.5-1.1 1-2.5 1.7-3.9 2-1.5 0.2-3 0-4.4-0.5zm5.9-21.6c8.1 1.4 3.9 15.4-6.4 7.7-1.3-1 0.2-3.2 1.5-2.3 1.5 1.1 4.4 3.5 6.4 1.4 1.7-2.4-0.7-4.7-2.3-5.6-0.4-0.3-0.1-1.3 0.8-1.2zm-19.4-7.8c0.2-2.1 3.5-2.6 3.9-0.5 0.3 2-0.1 3.7-0.9 5.5-0.9 1.7-3 0.9-3.1-0.6-0.2-2.1 0-3 0.1-4.4zm25.4-0.9c0.5-0.6 1.1-1.1 1.9-0.8 2.6 0.7 1.8 4.3 0.9 6-0.4 1-2 1.2-2.7 0.4-1.1-1.4-1.7-4.1-0.2-5.4q0-0.1 0.1-0.2zm-22.5-8.6l0.4-0.1c1.2-0.2 2.8-0.4 3.6 0.6 0.5 0.5 0.7 1.5 0 2-1.1 0.8-2.3 0.5-3.6 0.6q-1.6 0.1-3.1 0.5c-2.3 0.7-4.1 1.8-6.1 3.1-0.2 0.2-0.5-0.1-0.4-0.3 1.2-2.2 3.3-4 5.5-5.1 1.2-0.6 2.4-1.1 3.7-1.3zm20.2-1h0.3c3.3 0.7 7.6 2.1 9.2 5.4 0 0.4 0 0.5-0.1 0.6 0 0.1-0.1 0.1-0.3 0.2q0 0-0.1 0c-0.7-0.2-1.3-0.5-1.9-0.8l-0.6-0.3c-0.7-0.3-1.3-0.6-2.1-0.9q-2.4-0.7-4.8-1-0.6-0.1-1-0.4-0.4-0.3-0.5-0.8c-0.2-0.5-0.1-0.9 0.1-1.3q0.3-0.4 0.8-0.6 0.5-0.2 1-0.1z"/>
					</g>
					<g id="facial-hair/*-None">
					</g>
					<g id="accessories/Glasses-3">
						<path id="ðŸ–-Ink" fill-rule="evenodd" class="s1" d="m135 92.7c-0.9 0.4-1.4 1.3-1.2 2.3 0.2 0.8-0.2 1.4-0.7 1.7-0.1 4.7-0.9 10.1-4.6 13.6-8.6 5.6-17-1.3-15.3-12.2q-0.1-0.1-0.3-0.3-0.1-0.2-0.1-0.3c-0.2-0.2-1.6-0.7-3.4-0.4-1.8 0.2-2.4 1.1-3.3 2-0.1 0.3-0.3 0.5-0.7 0.6-0.7 4-1.5 8.4-4.5 11.4-7.7 7.2-21 1.3-20.6-9.7-2.6-0.5-0.4-3.6-4.6-4.3-0.8-0.3-1.5-0.8-2-1.3-6.3-0.7-12.6-0.4-18.7 1.8-2.5 1-5.7 1.5-4.2 5.1-0.1 1-1.3 1.6-2 0.8-4.3-7.5 4-8.7 10.1-9.6 3.2-0.7 6.5-1 9.8-1 1.6 0.1 3.6 0 4.9 0.4 1.4-4.2 30.7-5.2 32.4 1.8 2.2 0 3.9 0.6 5.8-0.1 0.6-5.1 14.5-7.1 20.6-5.7q0.6 0.1 1.2 0.2 0.3 0.1 0.5 0.2 0.3 0 0.5 0.1c1.4 0.2 1.6 2.3 0.4 2.9zm-31.2 5.9c-2.4-2.1-3.8-4.1-8.5-4.4-3.7 0-7.7-0.1-11 2-2 1-1.6 3.9-3.2 5 1.8 13.1 18.7 16.6 21.8 2 0.4-1.5 0.8-3.2 0.9-4.6zm27.2-2.3c-1.8-1.9-0.7-4.5-4.9-4.1-12 0.7-8.2 7.8-11.7 6.8 0.1 4.6 1.8 10.6 7 11.1 2.5 0.2 5.1-0.4 6.5-2.3 2.4-3.4 3.1-7.6 3.1-11.5z"/>
					</g>
				</g>
			</g>
		</g>
	</g>
</svg>