<svg version="1.2" xmlns="http://www.w3.org/2000/svg" viewBox="0 0 175 175" width="175" height="175">
	<title>female-03</title>
	<style>
		.s0 { fill: #ffffff } 
		.s1 { fill: #000000 } 
	</style>
	<g id="Introduction">
		<g id="variations">
			<g id="images">
				<g id="a-person/bust">
					<g id="body/Button-Shirt-1">
					</g>
					<g id="head/Long">
						<path id="ðŸŽ¨-Background" fill-rule="evenodd" class="s0" d="m134.2 91.3c-0.8-13.1-5.1-28-17.6-34.5-27.7-11.1-64.1 16.9-66 45.5-0.7 9.8 4.8 20.5 14.7 23.2 2.2 2.9 5.5 4.7 8.8 6.2 39.2 20.4 64.6 3.8 60.1-40.4z"/>
						<path id="ðŸ–-Ink" fill-rule="evenodd" class="s1" d="m143.1 83.2q-2-5.8-4.4-11.5c-1.5-3.7-2.8-7.5-4.7-11-11.1-21-31.3-21-41.8-18.2-5.4-2.4-15.6-1.7-21.2 0.4-9.2 3.4-20.3 16.9-24.1 22.9-8.4 13.3-13.7 31.1-8.1 46.5 0.7 2 1.7 3.8 2.7 5.6q-1 1.4-2.2 2.6c-2.5 2.5-5 4.9-7.2 7.7-2.2 2.7-3.9 5.7-5.3 9-2.5 6.1-2.6 13 0.7 18.9 2.9 5.1 8 8.9 13.7 9.3q0.5 0 0.9 0.1 1.2 1.9 2.8 3.4c3.2 3.1 10.9 4.7 15.4 4.8q0.3 0.2 0.6 0.5c2.7 2.1 5.6 4.3 8.7 5.8 2.1 1 4.8 1.9 7 1.1 1 0.7 2.6 0.5 3.6 0 1.6-0.9 2.9-2.5 3.7-4.1 2-4 1.5-8.4 1-12.7q-0.8-7-1.6-14.1c-0.4-3.7-0.9-7.4-2-11q-0.8-2.8-2.3-5.3 0-0.2 0-0.4c-0.3-1-1-1.6-1.8-2.3q-0.1-0.1-0.3-0.2-0.6-0.7-1.3-1.3-0.2-0.2-0.5-0.5c-1.4-1.5-2.7-3-3.9-4.7-1.2-1.7-2.2-3.4-3.2-5.1-1-1.7-1.7-3.7-2.7-5.4-0.1-0.2-0.3-0.2-0.4-0.1-0.4 0.3-0.6 0.7-0.5 1.1h-0.2c0-0.6-0.6-1-1.3-0.9-1 0.2-1.9 0.2-2.8-0.1q0.2-1.6 0.4-3.3 0.4-3 0.7-6 0.8 0.2 1.6 0.6 1.1 0.5 2 1.3c0.6 0.5 1 1.2 1.7 1.6 0.8 0.4 1.7-0.3 1.5-1.2-0.5-1.9-3.2-2.9-4.9-3.3q-0.8-0.1-1.7-0.1 0.2-1.9 0.3-3.9 0.1-0.9 0.1-1.8c1.4-0.4 2.8-0.5 4.1-0.3q0.7 0.5 1.3 1 2.1 1.7 4.1 3.5 0.2 0.1 0.4 0.3c0.8 0.7 1.8 0 1.7-1-1.1-8 3.8-14.4 9.5-19.3 6.4-5.5 18-6.1 25.5-15.6 3.5 0.7 11.3 2.8 14.5 7.9 4.5 7.2 3.9 13.6 4.3 21.8 0.3 8.1 1.2 16.6-0.7 24.6-1.7 7.4-6.3 13.8-13.5 16.7q-0.2 0.1-0.5 0.2c-3.7 1.4-7.7 1.8-11.6 1-4.4-0.8-8-2.8-11.5-5.2-0.2-0.1-0.5 0.2-0.4 0.4 4.7 6.2 14 8.3 21.4 6.7q0.5-0.1 1-0.3c-1.6 4.8-1.3 10 0.8 14.6 1.3 2.8 3.3 5.2 5.7 7.1 2.6 2 5.9 3.7 7.8 6.7 1.6 2.7 1.1 5.7-1.7 7.2-0.8 0.4-1 1.7-0.3 2.2q0.4 0.4 0.8 0.7c1.6 1.2 6 3.5 6.8 3.6 6.3 0.7 10.6-4 13.3-9.5 3.3-6.4 2.4-14.3-1.1-20.5-2.9-4.9-8.5-9.8-6.2-16 0.7-2.3 2.4-4.2 3.9-5.9 1.8-2 3.8-3.8 5.5-5.8 1.7-2 3.2-4.2 4.1-6.7 1.2-3.7 0.6-7.7-0.3-11.4-2-7.9-4.6-15.8-7.4-23.4z"/>
					</g>
					<g id="face/Smiling">
						<path id="ðŸ–-Ink" fill-rule="evenodd" class="s1" d="m107.5 124.5c-1.4-0.6-2.7-1.5-3.6-2.8-0.3-0.4-0.4-0.9-0.3-1.3 0-0.4 0.3-0.9 0.7-1.2 0.4-0.2 0.8-0.4 1.3-0.3 0.4 0.1 0.8 0.3 1.1 0.7l0.1 0.1q0.7 1.2 2.1 1.8c0.7 0.3 1.6 0.5 2.5 0.4 1.8-0.2 3-1.1 4.2-2.4q0.3-0.2 0.5-0.5 0.2-0.2 0.4-0.3 0.3-0.1 0.6 0 0.2 0.1 0.4 0.3 0.1 0.3 0.1 0.6c-0.1 1.3-0.8 2.5-1.8 3.4-1.1 1-2.5 1.7-3.9 2-1.5 0.3-3 0.1-4.4-0.5zm5.9-21.5c8.2 1.3 4 15.3-6.4 7.7-1.2-1 0.3-3.2 1.6-2.4 1.4 1.1 4.3 3.6 6.3 1.4 1.8-2.4-0.7-4.6-2.3-5.6-0.4-0.3-0.1-1.3 0.8-1.1zm-19.3-7.8c0.2-2.2 3.5-2.7 3.8-0.6 0.3 2 0 3.8-0.9 5.5-0.8 1.7-2.9 0.9-3.1-0.6-0.2-2 0.1-3 0.2-4.3zm25.3-1c0.5-0.6 1.2-1 2-0.8 2.5 0.7 1.8 4.3 0.9 6-0.5 1-2.1 1.2-2.8 0.4-1.1-1.4-1.6-4.1-0.2-5.4q0.1-0.1 0.1-0.2zm-22.4-8.6l0.4-0.1c1.2-0.2 2.7-0.4 3.6 0.6 0.4 0.5 0.6 1.5 0 2-1.1 0.9-2.3 0.5-3.6 0.6q-1.6 0.1-3.2 0.5c-2.2 0.7-4.1 1.9-6 3.2-0.3 0.1-0.5-0.2-0.4-0.4 1.1-2.2 3.3-4 5.4-5.1 1.2-0.6 2.5-1.1 3.8-1.3zm20.2-1l0.3 0.1c3.3 0.7 7.6 2 9.1 5.3 0.1 0.4 0 0.5 0 0.6h-0.1c0 0.1 0 0.2-0.2 0.2q-0.1 0-0.2 0c-0.7-0.2-1.3-0.5-1.8-0.7l-0.6-0.3c-0.7-0.4-1.4-0.7-2.2-0.9q-2.3-0.8-4.8-1.1-0.5-0.1-1-0.4-0.4-0.3-0.5-0.8c-0.1-0.5-0.1-0.8 0.2-1.2q0.2-0.5 0.7-0.7 0.5-0.2 1.1-0.1z"/>
					</g>
					<g id="facial-hair/*-None">
					</g>
					<g id="accessories/*-None">
					</g>
				</g>
			</g>
		</g>
	</g>
</svg>