<svg version="1.2" xmlns="http://www.w3.org/2000/svg" viewBox="0 0 175 175" width="175" height="175">
	<title>male-02</title>
	<style>
		.s0 { fill: #ffffff } 
		.s1 { fill: #000000 } 
	</style>
	<g id="Introduction">
		<g id="variations">
			<g id="images">
				<g id="a-person/bust">
					<g id="body/Tee-Arms-Crossed">
					</g>
					<g id="head/Twists">
						<path id="ðŸŽ¨-Background" fill-rule="evenodd" class="s0" d="m128.2 88.4c1.7 13.7 2.7 28.8-5.8 40.2-1.5 1.9-7.9 8.9-20.2 9.6-10.3 0.5-20.7-2.5-29-8.7-0.9-0.7-1.1-1.6-0.8-2.4-3-2.5-5.2-6.3-5.9-10.2-0.2-0.7-1-0.7-1.6-0.8-4-0.7-8.7-2-9.5-6.6-0.9-9 8-10.8 3.6-21.4-2.5-9.6-13.9-24.8-5.5-33.3 1.8-1.8 4.3-2.8 6.8-2.3 16.2-7.7 35-9.8 52.4-5.6 2.5 0.6 5.2 1.2 7.3 2.9 4.4 3.8-3.8 7.7-2.3 12.5 1.4 1.9 7.3 12.1 8.6 17.3 2.2 9.4 0.7-0.7 1.9 8.8zm-74.5-24.8c-0.5-0.1-0.9-0.4-1.1-0.7q0 1.3 0.3 2.7 0.3-1 0.8-2zm5.4-10.5c-1.5 0.3-2.9 1.2-4 2.3 1.3-0.9 2.6-1.6 4-2.3z"/>
						<path id="ðŸ–-Ink" fill-rule="evenodd" class="s1" d="m88.3 35.8c0.4-1.2 1.5-1.9 2.8-1.8 1.1 0.2 2.3 1.3 2.1 2.5q0 0.3-0.1 0.6v0.1q-0.1 0.6-0.4 1.1-0.3 0.9-0.6 1.9 0.5-0.1 0.9 0 0.5-1.2 1-2.4c0.3-0.9 0.6-2 1.2-2.7 0.9-0.8 2.4-1 3.4-0.4 1.1 0.7 1.5 1.8 1.3 3-0.1 0.7-0.6 1.1-1.1 1.4l-0.4 1q0.2-0.1 0.4-0.2 0.3-0.1 0.6-0.1 0.9-1.6 1.8-3c0.8-1.2 2.2-1.6 3.5-0.9 1.1 0.6 1.6 2.3 0.9 3.4q-0.9 1.3-1.8 2.6 0.2 0 0.3 0 0.1-0.1 0.2-0.1c0.6-0.8 1.3-1.4 2-2 0.7-0.6 1-1.5 1.9-1.9 1.1-0.6 2.5-0.3 3.1 0.8 1.5 2.4-0.9 4.1-2.5 5.6q2-1.3 4.2-2.3 1.2-0.6 2.4-1c1.2-0.5 2.2-0.3 3.2 0.5 0.5 0.4 0.7 1.2 0.5 1.8-0.4 1-1 1.7-2.1 2-0.8 0.2-1.6 0.3-2.4 0.6q-2 0.5-3.8 1.4 0.1 0.1 0.2 0.2 1.4-0.5 2.8-0.8 2.4-0.6 4.8-0.8h0.5c1.9-0.2 4.2-0.6 5.4 1.3 0.4 0.6 0.4 1.6 0 2.2-0.8 1.1-1.6 1.4-3 1.4q2 0.2 4 0.5 1.4 0.2 2.8 0.5l0.4 0.1c1.1 0.2 2.4 0.3 3.3 1 2.1 1.4 1.1 4.1-1.2 4.4-1.1 0.1-2.3-0.3-3.4-0.6q-1.6-0.3-3.2-0.5-0.9-0.2-1.7-0.3 1.7 0.3 3.4 0.8h0.3c2.1 0.7 4.9 1.7 5.6 4 0.4 1.3-0.7 2.5-2 2.6-1.3 0.1-2.3-0.6-3.3-1.2q-1.2-0.6-2.4-0.9-1.3-0.4-2.6-0.7 1.1 0.6 2.2 1.4l0.3 0.2c1.8 1.4 4.6 3.5 4 6-0.2 0.8-1.1 1.6-2 1.5-2.2-0.2-3.5-2.6-5.2-3.9q-0.6-0.5-1.4-0.9c2.6 3 4.6 6.6 6.2 10.2 3.4 8.1 4.4 15.5 4.4 24.1v0.3c0 4.8-0.1 9.6-0.5 14.4-0.5 4.4-1.3 8.7-3.2 12.7-3.4 6.6-9.9 11.8-17 13.8-8 2.2-16.9 0.5-23.4-4.6-1.7-1.3 0.5-4.1 2.2-2.9 6.8 4.8 15.6 6.3 23.4 3 6.2-2.5 11.2-8 13.3-14.4 1.3-4 1.7-8.3 2.2-12.5v-0.3c0.5-4.4 0.8-8.8 0.8-13.2 0-8.2-1.2-15-4.8-22.4-1.7-3.5-3.9-6.8-6.5-9.6-0.8 0.1-1.7-0.1-2.5-0.2q-0.6 0-1.2-0.1 0.6 0.4 1.2 0.9l0.6 0.3c1.6 1.2 3.7 2.6 3.3 4.9-0.1 0.6-0.7 1.2-1.3 1.3-2.2 0.6-3.7-1.6-5.2-2.8-1.3-1.1-2.6-2.1-4-3.1q-0.4-0.3-0.9-0.7 0.4 0.6 0.8 1.1l0.5 0.5c1.2 1.6 3 3.6 1.9 5.7-0.3 0.5-1 0.9-1.6 0.9-2.3 0-3.2-2.6-4.2-4.2-1-1.4-1.9-2.7-3-4q-0.4-0.5-0.8-1.1c-4.7 0.3-9.5 0.9-14.1 1.9-3.2 0.7-6.3 1.6-9.4 2.6h-0.3c-1.6 0.6-3.4 1.3-4.6 2.5-0.2 0.8 0 1.6 0.1 2.5l0.2 0.6c0.5 2.6 0.9 5.2 0.6 7.9-0.3 2.7-1.1 5.2-2.1 7.8-0.5 1.2-1 1-1.2 2.3-0.1 1 0 2 0 3l0.1 0.9c0.2 2.2 0.3 4.6-1.1 6.4-0.3 0.3-0.8 0.2-0.9-0.1q-0.1-0.2-0.2-0.3c-0.7-1-1.8-1.6-3-1.8-0.2-0.1-0.1-0.3 0-0.3 1-0.1 2 0.2 2.9 0.7-0.4-1.4-3.5-0.7-4.5-0.4-1.3 0.3-2.5 0.9-3.5 1.6-2.2 1.6-3.4 4-3.3 6.7 0 2.5 1.4 4.9 3.7 6.2 1.1 0.6 2.3 0.8 3.6 0.8 1.3 0 2.4-0.5 3.8-0.5 0.7 0.1 1.3 0.9 0.8 1.6q-0.4 0.7-1.1 1.1c1.1 2.5 2.5 4.9 4.1 7q1.3 1.8 2.9 3.4c0.9 0.8 2.7 1.7 2.6 3 0 0.5-0.3 0.8-0.7 1-1.4 0.5-3-1.4-3.9-2.3l-0.1-0.1q-1.7-1.7-3.1-3.7c-1.5-2.3-2.5-5-2.9-7.7-2.2 0.6-5.1 0-6.9-0.8-5.5-2.5-7.3-10-4-15q1-1.4 2.5-2.5-0.4-0.1-0.6-0.4c-1-1-1.6-2.3-2.3-3.5l-0.1-0.2q-0.9-1.6-1.6-3.2l-0.2-0.4c-1.2-2.5-2.2-3.6-3.1-6.3q-1.2-3.8-1.8-7.7l-0.1-0.7c-0.2-1.5-0.5-3.2-0.3-4.7-1.2 0.4-2.4 0.6-3.5 0-0.8-0.4-1.2-1.5-1-2.3q0.3-0.9 1-1.4-0.4-0.2-0.7-0.5l-0.2-0.1c-0.7-0.6-0.8-1.8-0.3-2.6q0-0.1 0.1-0.2c0.4-0.7 1.3-1.2 2.1-1.2q0.2 0 0.4 0-0.6-0.1-1.1-0.4c-1.7-1-1.5-3.8 0.5-4.3 0.8-0.2 1.7-0.1 2.5 0.1-0.6-0.4-1.2-1.3-1.1-2.1 0-1 0.4-1.6 1.2-2.1 0.7-0.5 1.7-0.5 2.4 0q1 0.6 1.9 1.3c-0.6-0.7-1.1-1.5-1.3-2.3-0.3-1.1 0.1-2.2 1.1-2.8 0.7-0.4 1.5-0.4 2.2 0 0-0.6 0.1-1.1 0.5-1.6 0.7-1 2.1-1.6 3.2-0.9 0.2 0.1 0.4 0.3 0.6 0.5-0.4-1.3 0-2.6 1.3-3.1 0.8-0.4 1.9-0.2 2.6 0.4-0.4-2.4 3.1-4.2 4.5-1.7q0.5 0.8 0.9 1.8l0.1 0.2h0.1l-0.1-0.2-0.1-0.1c-0.4-0.9-0.9-1.9-1-2.8-0.2-1.5 0.4-2.9 2-3.1 0.8-0.1 1.7 0.3 2.3 0.9-0.3-2.2 2.2-3.8 4-2.2 0.8 0.8 1.3 2 1.8 3q0.5 0.9 0.9 1.7 0.2-0.1 0.3-0.3-0.7-2-1.1-4.1c-0.3-1.3 0.4-2.7 1.7-3.1 1.3-0.3 2.8 0.4 3.1 1.8q0.3 1.4 0.7 2.7 0.2 0 0.5-0.1 0-0.2 0-0.5l0.1-0.6c0.2-1.4 0.3-3 1-4.2 1.3-2 4.5-1.2 4.5 1.2 0 1.3-0.5 2.5-0.7 3.7q-0.1 0.8-0.1 1.6 0.5-2.6 1.3-5.3 0.1-0.3 0.2-0.6zm-41.5 23q0.1 0 0.1 0 0 0 0.1 0-0.1 0-0.2 0zm14 46.3c2.8-0.5 5.4 1.1 7 3.3 0.3 0.4 0.1 1-0.1 1.3-0.2 0.2-0.5 0.3-0.8 0.3-0.3 0.1-0.8-0.2-0.9-0.5-1.1-2.1-3-3.5-5.2-4.3zm3.9-38.2l0.1-0.1c0.5-0.6-0.4-1.5-0.9-0.9-0.6 0.6-1 1.4-1.4 2.2-0.4 0.7 0.7 1.3 1.1 0.6l0.2-0.3c0.2-0.5 0.5-1.1 0.9-1.5zm-7.9-1.2c0.8-0.1 0.5-1.4-0.3-1.2q-1.6 0.3-3.1 0.5c-0.8 0.2-0.5 1.4 0.3 1.3q1.6-0.3 3.1-0.6zm47.9-8.3c-0.8-0.3-1.2 0.9-0.4 1.2 1.1 0.3 2.1 0.7 3.2 1.2 0.7 0.4 1.3-0.7 0.6-1.1-1.1-0.5-2.3-0.9-3.4-1.3zm-48.1-1.7c-0.7-0.3-1 0.9-0.3 1.2l2.7 1.1c0.8 0.3 1.1-0.9 0.4-1.2zm57.6-3h-0.1c-0.7-0.5-1.4 0.6-0.7 1.1 0.4 0.2 0.9 0.4 1.3 0.7v0.1c0.6 0.5 1.5-0.4 0.9-0.9-0.4-0.4-0.9-0.7-1.4-1z"/>
					</g>
					<g id="face/Explaining">
						<path id="ðŸ–-Ink" fill-rule="evenodd" class="s1" d="m93.2 118.6c2.6-3 6.9-3.2 10.5-2.5 2.4 0.5 4.6 1.3 7 1.6q1.6 0.2 3.3 0.2c1.1 0 2.2-0.3 3.2-0.2 0.2 0 0.3 0.2 0.1 0.3-1.5 0.9-3.5 1.2-5.2 1.4q0 0.2 0 0.3 0.1 0.5 0.1 0.9 0.2 1 0.3 2c0.2 1.2 0.2 2.6 0.5 3.8l0.1 0.2q0.1 0.4 0.1 0.7l0.3-0.1 0.1-0.1c0.5-0.2 1.1-0.4 1.7-0.3 0.5 0 0.9 0.3 0.9 0.8 0 2.4-3.1 3.1-4.9 3.5l-0.5 0.2c-2.3 0.5-4.6 1-7 1.1-3.7 0.2-7.9-0.8-10.4-3.9-2.3-2.8-2.7-7-0.2-9.9zm17 9.7c-0.4-3.5-4.7-3.6-5.9-1.4-0.5-3.1-8.6-0.3-8 0.3 2.4 2.3 6 2.5 9.2 2.1 1.6-0.2 3.1-0.6 4.7-1zm-4.7-9.1l-1.1-0.2h-0.4c-2.7-0.4-5.7-0.6-7.9 1.1-0.8 0.7-1.3 1.5-1.4 2.4q3.1-0.5 6.2-0.8h0.6q2-0.2 3.9-0.4l0.9-0.1 1-0.1c0.3 0 2.5-0.1 2.9-0.1 0.1-0.3 0.1-1.1 0.2-1.5-1.6 0.1-3.1-0.1-4.7-0.3zm5.8-16.7c8.1 1.4 3.9 15.4-6.5 7.7-1.2-1 0.3-3.2 1.6-2.3 1.5 1.1 4.4 3.5 6.4 1.4q0.6-0.8 0.6-1.6 0.1-0.1 0 0c0-1.8-1.7-3.3-2.9-4.1-0.4-0.3-0.1-1.2 0.8-1.1zm-18.4-3.4c0-1.4 0.8-4.5 2.7-4.5 1.2 0 2 2.1 2.1 4.3v0.1c0.1 1.3-0.3 4.3-2.1 4.3-1.8 0-2.7-2.8-2.7-4.2zm25.8 3.7c-1.8 0-2.1-3-2-4.3v-0.2c0.1-2.1 0.9-4.1 2-4.1 2 0 2.8 3.1 2.8 4.4v0.1c-0.1 1.4-1 4.1-2.8 4.1zm-24.7-17.3c1.6-0.3 3.7 0.2 4.4 1.8 0.4 0.7 0 1.5-0.9 1.5-2 0.1-3.8-0.3-5.5 1-0.8 0.5-1.4 1.3-1.9 2.1l-0.2 0.3-0.2 0.2c-0.4 0.6-0.7 1.1-0.7 1.8 0.1 0.2-0.1 0.4-0.3 0.4-1.2-0.1-1.3-1.5-1.2-2.4 0.3-1.6 1.1-3.1 2.2-4.3 1.1-1.3 2.6-2.2 4.3-2.4zm21.8 1.9c1.1-0.7 2.5-1 3.8-0.9 2.5 0.2 6.7 2.4 6.2 5.5-0.2 0.9-1.5 1.4-2.3 0.9-0.8-0.6-1-1.5-1.7-2.2-0.5-0.6-1.1-1-1.8-1.4-0.6-0.3-1.4-0.6-2.1-0.6h-0.2c-0.4-0.1-2.7-0.1-2.4 0.8 0.1 0.1-0.2 0.3-0.3 0.2-0.7-0.8 0.1-1.8 0.8-2.3zm-2.5 20.4v-0.1h0.1-0.1q0 0.1 0 0.1z"/>
					</g>
					<g id="facial-hair/*-None">
					</g>
				</g>
			</g>
		</g>
	</g>
</svg>